<?xml version="1.0" encoding="UTF-8"?>
<svg id="Layer_2" data-name="Layer 2" xmlns="http://www.w3.org/2000/svg" viewBox="0 0 595.32 724.76">
  <defs>
    <style>
      .cls-1 {
        fill: #932730;
      }
    </style>
  </defs>
  <g id="UdovI3">
    <path class="cls-1" d="m-21.83,60.2c2.59-3.81,4.86-7.76,7.71-11.25C2.75,28.34,32.42,27.53,51.1,42.95c13.91,11.49,20.83,26.62,21.72,44.51.33,6.61-1.73,12.78-4.5,18.71-5.14,11.01-12.54,20.47-20.58,29.45-14.44,16.13-30.67,30.31-47.74,43.56-6.59,5.12-13.38,9.97-20.04,15.01-1.18.89-2.03.98-3.3.07-24.08-17.41-47.13-36-67.12-58.12-7.54-8.34-14.28-17.26-19.68-27.19-6.97-12.83-7.47-25.96-2.58-39.45,4.79-13.22,12.66-24.09,25.14-31.08,20.62-11.56,48.67-6.98,62.87,16.64,1.02,1.71,1.95,3.47,2.88,5.15Z"/>
  </g>
  <g id="UdovI3-2" data-name="UdovI3">
    <path class="cls-1" d="m97.46-79.49c2.59-3.81,4.86-7.76,7.71-11.25,16.86-20.61,46.54-21.42,65.21-6.01,13.91,11.49,20.83,26.62,21.72,44.51.33,6.61-1.73,12.78-4.5,18.71-5.14,11.01-12.54,20.47-20.58,29.45-14.44,16.13-30.67,30.31-47.74,43.56-6.59,5.12-13.38,9.97-20.04,15.01-1.18.89-2.03.98-3.3.07C71.87,37.15,48.82,18.55,28.83-3.56c-7.54-8.34-14.28-17.26-19.68-27.19-6.97-12.83-7.47-25.96-2.58-39.45,4.79-13.22,12.66-24.09,25.14-31.08,20.62-11.56,48.67-6.98,62.87,16.64,1.02,1.71,1.95,3.47,2.88,5.15Z"/>
  </g>
  <g id="UdovI3-3" data-name="UdovI3">
    <path class="cls-1" d="m237.16,60.2c2.59-3.81,4.86-7.76,7.71-11.25,16.86-20.61,46.54-21.42,65.21-6.01,13.91,11.49,20.83,26.62,21.72,44.51.33,6.61-1.73,12.78-4.5,18.71-5.14,11.01-12.54,20.47-20.58,29.45-14.44,16.13-30.67,30.31-47.74,43.56-6.59,5.12-13.38,9.97-20.04,15.01-1.18.89-2.03.98-3.3.07-24.08-17.41-47.13-36-67.12-58.12-7.54-8.34-14.28-17.26-19.68-27.19-6.97-12.83-7.47-25.96-2.58-39.45,4.79-13.22,12.66-24.09,25.14-31.08,20.62-11.56,48.67-6.98,62.87,16.64,1.02,1.71,1.95,3.47,2.88,5.15Z"/>
  </g>
  <g id="UdovI3-4" data-name="UdovI3">
    <path class="cls-1" d="m356.45-79.49c2.59-3.81,4.86-7.76,7.71-11.25,16.86-20.61,46.54-21.42,65.21-6.01,13.91,11.49,20.83,26.62,21.72,44.51.33,6.61-1.73,12.78-4.5,18.71-5.14,11.01-12.54,20.47-20.58,29.45-14.44,16.13-30.67,30.31-47.74,43.56-6.59,5.12-13.38,9.97-20.04,15.01-1.18.89-2.03.98-3.3.07-24.08-17.41-47.13-36-67.12-58.12-7.54-8.34-14.28-17.26-19.68-27.19-6.97-12.83-7.47-25.96-2.58-39.45,4.79-13.22,12.66-24.09,25.14-31.08,20.62-11.56,48.67-6.98,62.87,16.64,1.02,1.71,1.95,3.47,2.88,5.15Z"/>
  </g>
  <g id="UdovI3-5" data-name="UdovI3">
    <path class="cls-1" d="m496.15,60.2c2.59-3.81,4.86-7.76,7.71-11.25,16.86-20.61,46.54-21.42,65.21-6.01,13.91,11.49,20.83,26.62,21.72,44.51.33,6.61-1.73,12.78-4.5,18.71-5.14,11.01-12.54,20.47-20.58,29.45-14.44,16.13-30.67,30.31-47.74,43.56-6.59,5.12-13.38,9.97-20.04,15.01-1.18.89-2.03.98-3.3.07-24.08-17.41-47.13-36-67.12-58.12-7.54-8.34-14.28-17.26-19.68-27.19-6.97-12.83-7.47-25.96-2.58-39.45,4.79-13.22,12.66-24.09,25.14-31.08,20.62-11.56,48.67-6.98,62.87,16.64,1.02,1.71,1.95,3.47,2.88,5.15Z"/>
  </g>
  <g id="UdovI3-6" data-name="UdovI3">
    <path class="cls-1" d="m615.44-79.49c2.59-3.81,4.86-7.76,7.71-11.25,16.86-20.61,46.54-21.42,65.21-6.01,13.91,11.49,20.83,26.62,21.72,44.51.33,6.61-1.73,12.78-4.5,18.71-5.14,11.01-12.54,20.47-20.58,29.45-14.44,16.13-30.67,30.31-47.74,43.56-6.59,5.12-13.38,9.97-20.04,15.01-1.18.89-2.03.98-3.3.07-24.08-17.41-47.13-36-67.12-58.12-7.54-8.34-14.28-17.26-19.68-27.19-6.97-12.83-7.47-25.96-2.58-39.45,4.79-13.22,12.66-24.09,25.14-31.08,20.62-11.56,48.67-6.98,62.87,16.64,1.02,1.71,1.95,3.47,2.88,5.15Z"/>
  </g>
  <g id="UdovI3-7" data-name="UdovI3">
    <path class="cls-1" d="m-21.83,362.47c2.59-3.81,4.86-7.76,7.71-11.25,16.86-20.61,46.54-21.42,65.21-6.01,13.91,11.49,20.83,26.62,21.72,44.51.33,6.61-1.73,12.78-4.5,18.71-5.14,11.01-12.54,20.47-20.58,29.45-14.44,16.13-30.67,30.31-47.74,43.56-6.59,5.12-13.38,9.97-20.04,15.01-1.18.89-2.03.98-3.3.07-24.08-17.41-47.13-36-67.12-58.12-7.54-8.34-14.28-17.26-19.68-27.19-6.97-12.83-7.47-25.96-2.58-39.45,4.79-13.22,12.66-24.09,25.14-31.08,20.62-11.56,48.67-6.98,62.87,16.64,1.02,1.71,1.95,3.47,2.88,5.15Z"/>
  </g>
  <g id="UdovI3-8" data-name="UdovI3">
    <path class="cls-1" d="m97.46,222.78c2.59-3.81,4.86-7.76,7.71-11.25,16.86-20.61,46.54-21.42,65.21-6.01,13.91,11.49,20.83,26.62,21.72,44.51.33,6.61-1.73,12.78-4.5,18.71-5.14,11.01-12.54,20.47-20.58,29.45-14.44,16.13-30.67,30.31-47.74,43.56-6.59,5.12-13.38,9.97-20.04,15.01-1.18.89-2.03.98-3.3.07-24.08-17.41-47.13-36-67.12-58.12-7.54-8.34-14.28-17.26-19.68-27.19-6.97-12.83-7.47-25.96-2.58-39.45,4.79-13.22,12.66-24.09,25.14-31.08,20.62-11.56,48.67-6.98,62.87,16.64,1.02,1.71,1.95,3.47,2.88,5.15Z"/>
  </g>
  <g id="UdovI3-9" data-name="UdovI3">
    <path class="cls-1" d="m237.16,362.47c2.59-3.81,4.86-7.76,7.71-11.25,16.86-20.61,46.54-21.42,65.21-6.01,13.91,11.49,20.83,26.62,21.72,44.51.33,6.61-1.73,12.78-4.5,18.71-5.14,11.01-12.54,20.47-20.58,29.45-14.44,16.13-30.67,30.31-47.74,43.56-6.59,5.12-13.38,9.97-20.04,15.01-1.18.89-2.03.98-3.3.07-24.08-17.41-47.13-36-67.12-58.12-7.54-8.34-14.28-17.26-19.68-27.19-6.97-12.83-7.47-25.96-2.58-39.45,4.79-13.22,12.66-24.09,25.14-31.08,20.62-11.56,48.67-6.98,62.87,16.64,1.02,1.71,1.95,3.47,2.88,5.15Z"/>
  </g>
  <g id="UdovI3-10" data-name="UdovI3">
    <path class="cls-1" d="m356.45,222.78c2.59-3.81,4.86-7.76,7.71-11.25,16.86-20.61,46.54-21.42,65.21-6.01,13.91,11.49,20.83,26.62,21.72,44.51.33,6.61-1.73,12.78-4.5,18.71-5.14,11.01-12.54,20.47-20.58,29.45-14.44,16.13-30.67,30.31-47.74,43.56-6.59,5.12-13.38,9.97-20.04,15.01-1.18.89-2.03.98-3.3.07-24.08-17.41-47.13-36-67.12-58.12-7.54-8.34-14.28-17.26-19.68-27.19-6.97-12.83-7.47-25.96-2.58-39.45,4.79-13.22,12.66-24.09,25.14-31.08,20.62-11.56,48.67-6.98,62.87,16.64,1.02,1.71,1.95,3.47,2.88,5.15Z"/>
  </g>
  <g id="UdovI3-11" data-name="UdovI3">
    <path class="cls-1" d="m496.15,362.47c2.59-3.81,4.86-7.76,7.71-11.25,16.86-20.61,46.54-21.42,65.21-6.01,13.91,11.49,20.83,26.62,21.72,44.51.33,6.61-1.73,12.78-4.5,18.71-5.14,11.01-12.54,20.47-20.58,29.45-14.44,16.13-30.67,30.31-47.74,43.56-6.59,5.12-13.38,9.97-20.04,15.01-1.18.89-2.03.98-3.3.07-24.08-17.41-47.13-36-67.12-58.12-7.54-8.34-14.28-17.26-19.68-27.19-6.97-12.83-7.47-25.96-2.58-39.45,4.79-13.22,12.66-24.09,25.14-31.08,20.62-11.56,48.67-6.98,62.87,16.64,1.02,1.71,1.95,3.47,2.88,5.15Z"/>
  </g>
  <g id="UdovI3-12" data-name="UdovI3">
    <path class="cls-1" d="m615.44,222.78c2.59-3.81,4.86-7.76,7.71-11.25,16.86-20.61,46.54-21.42,65.21-6.01,13.91,11.49,20.83,26.62,21.72,44.51.33,6.61-1.73,12.78-4.5,18.71-5.14,11.01-12.54,20.47-20.58,29.45-14.44,16.13-30.67,30.31-47.74,43.56-6.59,5.12-13.38,9.97-20.04,15.01-1.18.89-2.03.98-3.3.07-24.08-17.41-47.13-36-67.12-58.12-7.54-8.34-14.28-17.26-19.68-27.19-6.97-12.83-7.47-25.96-2.58-39.45,4.79-13.22,12.66-24.09,25.14-31.08,20.62-11.56,48.67-6.98,62.87,16.64,1.02,1.71,1.95,3.47,2.88,5.15Z"/>
  </g>
  <g id="UdovI3-13" data-name="UdovI3">
    <path class="cls-1" d="m-21.83,664.75c2.59-3.81,4.86-7.76,7.71-11.25,16.86-20.61,46.54-21.42,65.21-6.01,13.91,11.49,20.83,26.62,21.72,44.51.33,6.61-1.73,12.78-4.5,18.71-5.14,11.01-12.54,20.47-20.58,29.45-14.44,16.13-30.67,30.31-47.74,43.56-6.59,5.12-13.38,9.97-20.04,15.01-1.18.89-2.03.98-3.3.07-24.08-17.41-47.13-36-67.12-58.12-7.54-8.34-14.28-17.26-19.68-27.19-6.97-12.83-7.47-25.96-2.58-39.45,4.79-13.22,12.66-24.09,25.14-31.08,20.62-11.56,48.67-6.98,62.87,16.64,1.02,1.71,1.95,3.47,2.88,5.15Z"/>
  </g>
  <g id="UdovI3-14" data-name="UdovI3">
    <path class="cls-1" d="m97.46,525.05c2.59-3.81,4.86-7.76,7.71-11.25,16.86-20.61,46.54-21.42,65.21-6.01,13.91,11.49,20.83,26.62,21.72,44.51.33,6.61-1.73,12.78-4.5,18.71-5.14,11.01-12.54,20.47-20.58,29.45-14.44,16.13-30.67,30.31-47.74,43.56-6.59,5.12-13.38,9.97-20.04,15.01-1.18.89-2.03.98-3.3.07-24.08-17.41-47.13-36-67.12-58.12-7.54-8.34-14.28-17.26-19.68-27.19-6.97-12.83-7.47-25.96-2.58-39.45,4.79-13.22,12.66-24.09,25.14-31.08,20.62-11.56,48.67-6.98,62.87,16.64,1.02,1.71,1.95,3.47,2.88,5.15Z"/>
  </g>
  <g id="UdovI3-15" data-name="UdovI3">
    <path class="cls-1" d="m237.16,664.75c2.59-3.81,4.86-7.76,7.71-11.25,16.86-20.61,46.54-21.42,65.21-6.01,13.91,11.49,20.83,26.62,21.72,44.51.33,6.61-1.73,12.78-4.5,18.71-5.14,11.01-12.54,20.47-20.58,29.45-14.44,16.13-30.67,30.31-47.74,43.56-6.59,5.12-13.38,9.97-20.04,15.01-1.18.89-2.03.98-3.3.07-24.08-17.41-47.13-36-67.12-58.12-7.54-8.34-14.28-17.26-19.68-27.19-6.97-12.83-7.47-25.96-2.58-39.45,4.79-13.22,12.66-24.09,25.14-31.08,20.62-11.56,48.67-6.98,62.87,16.64,1.02,1.71,1.95,3.47,2.88,5.15Z"/>
  </g>
  <g id="UdovI3-16" data-name="UdovI3">
    <path class="cls-1" d="m356.45,525.05c2.59-3.81,4.86-7.76,7.71-11.25,16.86-20.61,46.54-21.42,65.21-6.01,13.91,11.49,20.83,26.62,21.72,44.51.33,6.61-1.73,12.78-4.5,18.71-5.14,11.01-12.54,20.47-20.58,29.45-14.44,16.13-30.67,30.31-47.74,43.56-6.59,5.12-13.38,9.97-20.04,15.01-1.18.89-2.03.98-3.3.07-24.08-17.41-47.13-36-67.12-58.12-7.54-8.34-14.28-17.26-19.68-27.19-6.97-12.83-7.47-25.96-2.58-39.45,4.79-13.22,12.66-24.09,25.14-31.08,20.62-11.56,48.67-6.98,62.87,16.64,1.02,1.71,1.95,3.47,2.88,5.15Z"/>
  </g>
  <g id="UdovI3-17" data-name="UdovI3">
    <path class="cls-1" d="m496.15,664.75c2.59-3.81,4.86-7.76,7.71-11.25,16.86-20.61,46.54-21.42,65.21-6.01,13.91,11.49,20.83,26.62,21.72,44.51.33,6.61-1.73,12.78-4.5,18.71-5.14,11.01-12.54,20.47-20.58,29.45-14.44,16.13-30.67,30.31-47.74,43.56-6.59,5.12-13.38,9.97-20.04,15.01-1.18.89-2.03.98-3.3.07-24.08-17.41-47.13-36-67.12-58.12-7.54-8.34-14.28-17.26-19.68-27.19-6.97-12.83-7.47-25.96-2.58-39.45,4.79-13.22,12.66-24.09,25.14-31.08,20.62-11.56,48.67-6.98,62.87,16.64,1.02,1.71,1.95,3.47,2.88,5.15Z"/>
  </g>
  <g id="UdovI3-18" data-name="UdovI3">
    <path class="cls-1" d="m615.44,525.05c2.59-3.81,4.86-7.76,7.71-11.25,16.86-20.61,46.54-21.42,65.21-6.01,13.91,11.49,20.83,26.62,21.72,44.51.33,6.61-1.73,12.78-4.5,18.71-5.14,11.01-12.54,20.47-20.58,29.45-14.44,16.13-30.67,30.31-47.74,43.56-6.59,5.12-13.38,9.97-20.04,15.01-1.18.89-2.03.98-3.3.07-24.08-17.41-47.13-36-67.12-58.12-7.54-8.34-14.28-17.26-19.68-27.19-6.97-12.83-7.47-25.96-2.58-39.45,4.79-13.22,12.66-24.09,25.14-31.08,20.62-11.56,48.67-6.98,62.87,16.64,1.02,1.71,1.95,3.47,2.88,5.15Z"/>
  </g>
</svg>