<?xml version="1.0" encoding="UTF-8"?>
<svg id="Layer_2" data-name="Layer 2" xmlns="http://www.w3.org/2000/svg" viewBox="0 0 72.94 249.21">
  <defs>
    <style>
      .cls-1 {
        fill: #fff;
        stroke: #000;
        stroke-miterlimit: 10;
        stroke-width: 2.83px;
      }
    </style>
  </defs>
  <path class="cls-1" d="m11.32,144.72s.92-60.24-2.72-79.97c-1.37-7.41-5.6-22.11-4.53-29.58.75-5.19,6.07-15.41,10.56-18.11,9.05-5.43,16.17-7.24,21.95-7.24s12.9,1.81,21.95,7.24c4.49,2.7,9.82,12.92,10.56,18.11,1.07,7.46-3.16,22.16-4.53,29.58-3.63,19.74-2.72,79.97-2.72,79.97h-25.27s-25.27,0-25.27,0Z"/>
  <polygon class="cls-1" points="59.98 240.63 13.2 240.63 3.2 56.09 69.98 56.09 59.98 240.63"/>
  <rect class="cls-1" x="24.45" y="3.62" width="24.29" height="96.08" rx="6.06" ry="6.06"/>
</svg>