<?xml version="1.0" encoding="UTF-8"?>
<svg id="uuid-ac6c6a09-a23b-41ae-9c83-aa6e92442faf" xmlns="http://www.w3.org/2000/svg" version="1.1" viewBox="0 0 200.1 819.8">
  <!-- Generator: Adobe Illustrator 30.0.0, SVG Export Plug-In . SVG Version: 2.1.1 Build 123)  -->
  <defs>
    <style>
      .st0 {
        fill: #fff;
        stroke: #fff;
        stroke-linecap: round;
        stroke-linejoin: round;
        stroke-width: .5px;
      }
    </style>
  </defs>
  <g id="uuid-bdcce02b-80b7-492f-95b5-88c347971709">
    <path class="st0" d="M196.4,13c-.8,1.2-1.3,2.7-1.7,4.1-.6,2-1.1,4.1-1.5,6.2-.6,2.9-1,5.9-1.4,8.8-.5,3.5-.9,7.1-1.2,10.7-.4,4.2-.8,8.5-1.1,12.8-.4,4.9-.7,9.7-1,14.6-.4,5.5-.7,10.9-.9,16.4-.3,6-.6,12-.9,18.1-.3,6.5-.6,13-.8,19.5-.3,7-.5,13.9-.7,20.9-.2,7.3-.4,14.6-.7,22-.2,7.7-.4,15.4-.6,23.1-.2,8-.4,16-.6,23.9s-.4,16.6-.5,24.8-.3,16.9-.5,25.3c-.2,8.6-.3,17.3-.5,26s-.3,17.5-.4,26.3-.3,17.6-.4,26.4-.3,17.7-.4,26.6c-.1,8.8-.3,17.6-.4,26.4s-.3,17.5-.4,26.3-.3,17.2-.5,25.8-.3,17-.5,25.4-.3,16.5-.5,24.8-.4,15.9-.6,23.9-.4,15.4-.6,23.1-.4,14.6-.7,21.9-.5,13.9-.7,20.8c-.2,6.5-.5,12.9-.8,19.4-.3,6-.6,12-.9,18-.3,5.4-.6,10.8-.9,16.3-.3,4.9-.6,9.7-1,14.6-.3,4.2-.7,8.4-1.1,12.7-.2,1.8-.4,3.7-.6,5.5-.1.9-.2,1.7-.3,2.6,0,.4-.1.8-.2,1.2,0,.2,0,.4,0,.6,0,.3,0-.3,0,0,0,.1,0,.2,0,.3-.4,2.8-.8,5.6-1.4,8.4-.4,2-.8,4-1.5,6-.1.4-.2.8-.4,1.1,0,.2-.1.3-.2.5-.1.3.1-.3,0,0,0,0,0,.2-.1.2-.8,1.6-1.9,3.1-2.9,4.6-8,11.9-16.2,23.8-26.6,33.7s-22.1,17-35.8,19.9c-12.8,2.7-26.6.7-37.1-7.5-9.3-7.3-15.6-18.4-16.5-30.2-.2-1.9-3.2-1.9-3,0,.9,12.4,7.2,24.2,17,32,10.4,8.4,23.7,11.1,36.7,9.3,13.7-1.9,26.4-8.7,36.8-17.6,10.9-9.4,19.6-21.1,27.7-32.9,1.9-2.8,3.9-5.6,5.8-8.5.1-.2.3-.5.4-.7.4-.7.7-1.5.9-2.2.6-1.8,1.1-3.8,1.5-5.7.6-2.7,1-5.4,1.4-8.1.5-3.5.9-7,1.3-10.5.4-4.1.8-8.3,1.2-12.4.4-4.8.7-9.5,1.1-14.3.4-5.4.7-10.8,1-16.2.3-5.9.6-11.8.9-17.7.3-6.5.6-12.9.8-19.4.3-6.9.5-13.8.7-20.7.2-7.3.5-14.6.7-21.9.2-7.7.4-15.4.6-23.1.2-8,.4-15.9.6-23.9s.4-16.6.5-24.8c.2-8.5.3-16.9.5-25.4s.3-17.4.5-26,.3-17.5.4-26.3.3-17.8.4-26.6.3-17.7.4-26.6c.1-8.9.3-17.8.4-26.7.1-8.8.3-17.6.4-26.3s.3-17.4.5-26.1c.2-8.5.3-17.1.5-25.6s.3-16.6.5-24.9.4-16.2.6-24.2.4-15.5.6-23.2.4-14.8.7-22.3c.2-7,.5-14,.7-20.9.2-6.6.5-13.1.8-19.7.3-6,.6-12.1.9-18.1.3-5.5.6-11.1.9-16.6.3-4.9.6-9.8,1-14.7.3-4.3.7-8.6,1.1-12.9.4-3.6.8-7.2,1.2-10.8,0-.3,0,.1,0,0s0-.2,0-.3c0-.2,0-.4,0-.6,0-.4.1-.8.2-1.1l.3-2.2c.2-1.3.4-2.7.7-4,.4-2.1.9-4.2,1.5-6.2.1-.4.2-.7.4-1.1,0-.2.1-.4.2-.5,0-.2.3-.6,0-.1.2-.5.5-1,.8-1.5,1.1-1.6-1.5-3.1-2.6-1.5h0,0Z"/>
    <path class="st0" d="M126.2,745.4c10.6,11.6,23.7,26.9,17.7,43.8l2.5-.7c-7.6-8.9-19-14.1-30.6-14.2-1.2,0-2,1.7-1.1,2.6,7.5,6.8,12.5,16,14.1,26l1.4-1.9c-5.5-.2-11.4-.3-16.4-2.8-3.9-1.9-7.6-5.4-8.2-10,0-.8-.5-1.4-1.3-1.5-.7,0-1.5.3-1.7,1.1-1,5,1.1,9.6,1.9,14.4.5,2.9,0,7-2.5,8.9-2.9,2.2-6-.3-7.6-2.8-2-3.1-2.7-6.8-4.4-10.1-1.8-3.5-4.7-6.8-8.9-6.7-1,0-1.7.9-1.4,1.9,2,7.1,3.9,14.2,5.9,21.3l.2-1.2c-1.6,2.3-4.8,2.5-7.3,1.7-3.2-1-5.2-4-6.7-6.9-3.1-6.3-4.2-14-10.5-18.1-.9-.6-2.4.2-2.3,1.3.4,3.1,1.1,7.1-.9,9.9-1.2,1.6-4.1,3-5.8,1.4-1-.9-1.1-2.5-1.3-3.8-.3-1.6-.7-3-1.5-4.4-1.4-2.4-3.6-4.3-5.5-6.3-2.3-2.4-3.7-4.9-4.3-8.1-.7-3.8-1-7.7-1.5-11.5-1-7.9-2-15.9-3-23.8l-3.3-26.8c-.2-1.9-3.2-1.9-3,0,2.2,17.4,4.3,34.9,6.5,52.3.5,4.1.7,8.3,1.8,12.3.9,3.4,2.9,6,5.3,8.4,2.1,2.1,4.5,4.2,5.3,7.3s.8,6.5,4.2,7.8c3,1.1,6.5-.4,8.4-2.8,2.5-3.3,2.1-7.9,1.5-11.8l-2.3,1.3c3.6,2.3,5.3,6.5,6.8,10.3s2.9,8.2,5.8,11.5c2.5,2.8,6.1,4.4,9.9,4,1.7-.2,3.4-.8,4.7-1.9.6-.5,1.4-1.2,1.6-2,.2-.7-.2-1.4-.3-2-.2-.7-.4-1.4-.6-2.1-1.7-6-3.3-12-5-18l-1.4,1.9c3.8,0,5.9,3.9,7.2,7,1.5,3.7,2.4,7.4,5.2,10.5,2.4,2.7,6.3,4,9.6,2,3.2-1.8,4.4-5.7,4.6-9.2.2-5.5-3.2-10.8-2.2-16.3l-2.9-.4c.7,5.4,4.3,9.7,9,12.2,5.7,3,12.3,3.3,18.6,3.5,1.1,0,1.6-1,1.4-1.9-1.7-10.5-7-20.2-14.8-27.3l-1.1,2.6c10.9,0,21.4,5,28.5,13.3.8.9,2.2.3,2.5-.7,2.9-8.3,1.3-17.5-2.4-25.2s-10.1-14.9-16.1-21.5c-1.3-1.4-3.4.7-2.1,2.1h0Z"/>
    <path class="st0" d="M45.1,713.5c-4.5-1.6-9.2-1.2-13.9-1.6-4-.4-7.9-1.7-11.4-3.8-7.2-4.3-12.2-11.3-14.4-19.3-1.4-4.9-1.7-9.9-1.2-14.9l-2.8.8c1.2,2.2,3.3,3.6,5.5,4.9,2.9,1.7,5.8,3.3,8.6,5,5.7,3.3,11.4,6.7,17.2,9.8,10.6,5.5,22.3,8.4,34.2,7.9,6.5-.3,13-1.5,19.2-3.6,1.8-.6,1-3.5-.8-2.9-10.6,3.7-22,4.5-33,2.4-5.6-1.1-11.1-2.9-16.2-5.4-5.5-2.7-10.8-6-16.1-9-3-1.8-6.1-3.5-9.1-5.2-2.4-1.4-5.6-2.7-7-5.3-.8-1.4-2.7-.6-2.8.8-.9,9.2,1.1,18.9,6.3,26.6,4.7,7,12.1,12.3,20.4,14,5.4,1.1,11.2,0,16.5,2,1.8.7,2.6-2.2.8-2.9h0s0,0,0,0Z"/>
    <path class="st0" d="M87,696.2c-7.1,2.8-11,9.5-17.1,13.6-3.5,2.4-7.6,3.6-11.8,4.3-2.1.4-4.2.7-6.3.9-1.7.2-3.8.5-5.2-.8s-3.6.8-2.1,2.1c3.2,2.8,8.1,1.6,11.9,1,4.5-.7,8.9-1.6,13-3.8,3.6-1.9,6.4-4.8,9.2-7.6s5.5-5.5,9.2-7c1.8-.7,1-3.6-.8-2.9h0Z"/>
    <path class="st0" d="M86.9,695.5c-5.7.5-10.8-2.9-15.8-5.1s-10.4-3.8-15.8-5.2c-10.8-2.6-21.8-4-32.6-6.6-6.1-1.5-12.2-3.3-17.9-6-1.7-.8-3.3,1.8-1.5,2.6,20.8,9.7,44.5,8.7,65.6,17.4,5.8,2.4,11.6,6.4,18.2,5.9,1.9-.2,1.9-3.2,0-3h0Z"/>
    <path class="st0" d="M86,740.7c3.1.3,6.2.5,9-1,1.2-.6,2.3-1.5,3.7-1.9s2.8-.5,4.2-.9c2.4-.6,4.7-2.3,5.1-4.9.2-1.2-.2-2.3-.9-3.2-.4-.5-.9-.9-1.3-1.4-.4-.6-.8-1.3-1.1-2-2.1-4.7-5.5-8.7-10-11.3s-10.7-4.1-15.8-1.9-8.4,7.2-13.9,8.1c-.6.1-1.1.8-1.1,1.5,0,3,.3,6,1.7,8.7,1.3,2.4,3.6,3.9,6.1,4.8s5.1,1.2,7.4,2.5c2.5,1.3,4.1,4,7.2,3.4,1.9-.4,1.1-3.3-.8-2.9-1,.2-2.1-1-2.7-1.6-.9-.7-1.8-1.3-2.8-1.8-2.1-1-4.3-1.5-6.6-2.1s-4.1-1.6-5.2-3.6c-1.2-2.2-1.3-4.9-1.4-7.3l-1.1,1.5c4.3-.7,7.4-3.8,10.8-6.2,1.8-1.3,3.7-2.4,5.9-2.7,2.5-.4,5.1.2,7.5,1,4.2,1.5,7.9,4.4,10.3,8.1,1.3,2,1.9,4.4,3.4,6.2.6.7,1.6,1.3,1.3,2.3-.3.9-1.2,1.6-2.1,2-1.3.5-2.8.6-4.1.9s-2.6.9-3.8,1.6c-1.3.8-2.6,1.5-4.2,1.6s-3.2,0-4.7-.2c-1.9-.2-1.9,2.8,0,3h0s0,0,0,0Z"/>
    <path class="st0" d="M89.5,726.7c-1.1,0-2,.4-2.9.8-.4.2-.8.3-1.1.4,0,0-.2,0-.3,0-.2,0,.2,0,0,0-.2,0-.5,0-.7,0,.3,0-.4-.1,0,0,0,0-.2,0-.3-.1.2.1,0,0,0,0-.2-.2,0,0,0,0,0,0-.1-.2-.2-.2s0-.2-.1-.3c.1.2,0-.2,0-.2-.3-.8-.5-1.8-.6-2.5,0-.5,0-.9,0-1.3,0-.3,0-.1,0,0,0,0,0-.2,0-.3,0-.3,0-.2,0,0,0,0,.2-.4,0-.2.1-.2.3-.3.4-.4-.2.2.2-.2.3-.2.4-.2.8-.4,1.1-.6,0,0,.2,0,.3-.2.2-.1-.2,0,0,0,.2,0,.4-.1.5-.2-.3,0,.4,0,.2,0,.1,0,.2,0,.3,0,0,0,.4.2.2,0,.2,0,.3.2.5.3,0,0,.2.2,0,0,0,0,.2.1.2.2.1.1.3.3.4.4,0,0,.2.2,0,0,0,0,.1.2.2.3.4.7.6,1.3.7,2.2,0,.9-.2,1.9-.6,2.6-.3.7-.2,1.7.5,2,.7.4,1.7.2,2.1-.5,1.1-2.3,1.4-4.9.3-7.3-1-2.2-3.5-3.9-6-3.3-1.1.3-2.2.9-3.1,1.5-1.2.9-1.8,2-1.9,3.4-.1,1.2.1,2.5.4,3.7s.6,2.4,1.6,3.2c1.1,1,2.7,1.2,4.2.8.6-.1,1.1-.4,1.7-.6s1.3-.5,1.7-.5c.8,0,1.5-.7,1.5-1.5,0-.8-.7-1.6-1.5-1.5h0Z"/>
    <path class="st0" d="M104.6,683.3c-2.2.2-3.4-1.9-4.5-3.4-1.2-1.6-2.8-2.9-3.8-4.7s-1.4-4-2-6c-.6-2.2-1.1-4.5-1.5-6.7-.7-4.5.2-9.1-1.3-13.5-.7-2.1-1.6-4.2-2.4-6.3-.8-2-1.4-4.2-2.6-5.9-1.9-3-5.4-4.1-8.8-3.6-3.7.5-6.6,2.9-8.7,5.7-1.1,1.5-2.1,3.1-3,4.7-1,1.9-2,4-1.9,6.3,0,2.1,1.1,4,1.6,5.9.6,2.2,1.1,4.4,1.5,6.6.5,2.5.9,5,1,7.5,0,2.3,0,4.6-.2,6.9-.2,4.6,0,9.3,2,13.5.9,1.7,3.4.2,2.6-1.5-1.8-3.5-1.8-7.5-1.7-11.3s.4-8-.2-12-1.4-8.3-2.8-12.2c-.8-2.1-1.3-3.8-.5-6,.7-1.8,1.7-3.5,2.8-5.1,1.8-2.8,4.4-5.6,7.9-6.1,1.4-.2,2.9,0,4.1.7,1.7,1,2.3,2.8,3,4.5.8,2,1.6,4,2.4,6s1.6,3.9,1.7,6.1,0,4.3,0,6.5.5,4.2,1,6.2c.9,4.3,1.8,9.2,4.7,12.7.7.8,1.4,1.5,2.1,2.3s1.2,1.7,1.8,2.5c1.4,1.7,3.3,3,5.5,2.8,1.9-.2,1.9-3.2,0-3h0s0,0,0,0Z"/>
    <path class="st0" d="M67.3,640.8c-3-1.6-6.8-2.5-9.7-.4-2.8,2-4.6,5.5-6,8.5-1.6,3.3-2.7,6.7-3.2,10.4-.4,3.9.3,7.8.9,11.7.6,4.1,1,8.5-1,12.2-.9,1.7,1.7,3.2,2.6,1.5,4.5-8.2-.6-17.2.6-25.8.6-4.2,2.4-8.2,4.6-11.8,1-1.6,2.1-3.7,3.9-4.5,1.9-.9,4.2,0,5.9.9s3.2-1.7,1.5-2.6h0Z"/>
    <path class="st0" d="M71.7,692.6c1.9,0,1.9-3,0-3s-1.9,3,0,3h0Z"/>
    <path class="st0" d="M80.7,634.6c0-.2,0-.3,0-.5,0-.3,0,.5,0,0,0-.1,0-.2,0-.3,0-.5-.1-1.1-.2-1.6-.1-1.5-.2-3.1-.3-4.6-.3-4.8-.4-9.7-.6-14.5-.2-7-.4-14-.5-21-.2-8.9-.3-17.8-.5-26.8-.2-10.5-.3-21.1-.5-31.7-.2-11.9-.3-23.9-.4-35.8-.1-13-.3-26-.4-39-.1-13.9-.2-27.7-.4-41.5-.1-14.5-.2-29-.3-43.4,0-14.8-.2-29.6-.3-44.4s-.2-29.7-.2-44.6c0-14.7-.2-29.3-.2-44,0-14.2-.1-28.4-.2-42.6s0-27-.1-40.4c0-12.5,0-25,0-37.5,0-11.2,0-22.4,0-33.6,0-9.7,0-19.4,0-29.1s0-15.9,0-23.9c0-5.9,0-11.9,0-17.8,0-3.6,0-7.3,0-10.9,0-.8,0-1.7,0-2.5,0-1.9-2.9-1.9-3,0,0,2.4,0,4.9-.1,7.3,0,4.9,0,9.7,0,14.6,0,7,0,14,0,21v26.8c0,10.6,0,21.1,0,31.7,0,11.9,0,23.9,0,35.8,0,13,0,26.1.1,39.1,0,13.9,0,27.8.2,41.7s.1,29,.2,43.4c0,14.8.2,29.6.2,44.4s.2,29.7.3,44.6c0,14.7.2,29.3.3,44,.1,14.2.2,28.4.3,42.6s.2,27,.4,40.4c.1,12.5.3,25,.4,37.5.1,11.2.3,22.5.4,33.7.1,9.7.3,19.4.5,29.2.2,7.9.3,15.9.5,23.8.2,5.9.3,11.8.6,17.7.1,3.6.3,7.2.6,10.8,0,1,.2,1.9.3,2.9.3,1.9,3.2,1.1,2.9-.8h0Z"/>
  </g>
</svg>