<?xml version="1.0" encoding="UTF-8"?>
<svg id="uuid-ce8dff1b-4a4b-4dd5-8468-4c049b8c1b5f" xmlns="http://www.w3.org/2000/svg" version="1.1" viewBox="0 0 240.5 238.6">
  <!-- Generator: Adobe Illustrator 30.0.0, SVG Export Plug-In . SVG Version: 2.1.1 Build 123)  -->
  <defs>
    <style>
      .st0 {
        stroke: #fff;
        stroke-linecap: round;
        stroke-linejoin: round;
      }
    </style>
  </defs>
  <g id="uuid-fadd8d41-3afe-4d11-89c7-b5173f14c389">
    <path class="st0" d="M239.5,14.8c-1.5,32.7-12,65.4-12,65.4,0,0,4.9,43.8-4.9,61.1-9.7,17.3-37.7,22.3-37.7,22.3l-.8,7.6-4.6,4.1-2,4.9-.5,5.7-2.7,6.7,1.7,6.4,1.3,6.8.3,4v7.4l19.3,3.2-9.3,2.1,16.8,7.1-25.6-4.6-9.9,11.5,1-11.7-9.8,1.4,12.1-7.1-1.5-3.6-.8-6.8-3.9-11.1v-5.2l-1.9-5.7-.3-5.2.3-4.6s3.9-10.3-8-2.5c-11.9,7.7-102.8-.7-102.8-.7l-2.4,3.2-3.1,2.9-.9,3.9-.9,5.9-1,5.7-1.2,3.4,3.4,7.5-.4,5.9,3.1,7,15.9,3.4-7.9,1.9,15.1,6.3-24-4.6-10.5,11.8,1-11.7-10.4,1.7,12.7-7.3-1.7-3.9v-3.9l-1.7-3.1-.2-4.8-2.1-4.7.5-3.3-1.7-3.7-1.6-4.8-.9-5.7,1.8-8.3S-4,166.4,1.5,134.2C7.1,102,11.6,41.7,11.6,41.7L25.5,1l214,13.8h0Z"/>
    <polyline class="st0" points="33.4 177.7 33.9 183.6 36.6 189.6 38.2 187 39.8 190 41.4 186.6 43 189.3 43.6 184.7 45.2 188.4 47.8 179.5"/>
    <polyline class="st0" points="164 183.6 167 189.6 168.5 187 170.1 190 171.8 186.6 173.4 189.3 174 184.7 175.6 188.4 177.1 185"/>
  </g>
</svg>