<?xml version="1.0" encoding="UTF-8"?>
<svg id="Layer_1" data-name="Layer 1" xmlns="http://www.w3.org/2000/svg" viewBox="0 0 500 500">
  <path d="M383.35,239.86c45.81,17.16,68.72,47.63,68.72,91.43s-19.68,78.82-59.03,102.02c-34.51,20.39-77.7,30.58-129.57,30.58-55.1,0-105.05-10.79-149.85-32.39-18.77-9.08-30.88-13.62-36.33-13.62-5.05,0-11.91,3.74-20.59,11.2l-8.78-4.5,48.44-111.44,9.08,3.94c-1.01,2.42-1.51,4.54-1.51,6.36,0,10.9,5.55,20.89,16.65,29.97,14.33,11.71,34.81,21.34,61.46,28.91s53.38,11.35,80.22,11.35c25.43,0,47.23-4.15,65.39-12.45,23.01-10.52,34.51-27.01,34.51-49.47,0-19.42-8.17-34.09-24.52-44-16.35-9.92-40.47-14.87-72.35-14.87-19.38,0-32.75,1.41-40.11,4.24-7.37,2.83-12.06,8.38-14.08,16.65h-9.69v-101.42h9.69c2.42,9.08,6.91,14.99,13.47,17.71,6.56,2.72,19.42,4.09,38.6,4.09,29.87,0,52.78-5.25,68.72-15.74,13.93-8.88,20.89-21.69,20.89-38.45s-7.77-30.37-23.31-39.66c-15.54-9.28-37.74-13.93-66.6-13.93-40.77,0-76.59,8.98-107.47,26.94-14.94,8.88-22.4,18.16-22.4,27.85,0,3.84,1.31,8.38,3.94,13.62l-7.57,6.05L59.73,95.15l7.57-6.05c7.46,3.43,13.02,5.15,16.65,5.15,4.04,0,9.48-2.32,16.35-6.96,50.66-34.1,107.27-51.16,169.83-51.16,43.59,0,80.32,8.58,110.2,25.73,17.15,9.89,30.58,22.71,40.26,38.45,9.89,16.35,14.83,34.62,14.83,54.79,0,36.13-17.36,64.38-52.07,84.77Z"/>
</svg>