<?xml version="1.0" encoding="UTF-8"?>
<svg id="Calque_1" xmlns="http://www.w3.org/2000/svg" version="1.1" viewBox="0 0 1920 1080">
  <!-- Generator: Adobe Illustrator 30.0.0, SVG Export Plug-In . SVG Version: 2.1.1 Build 123)  -->
  <defs>
    <style>
      .st0 {
        fill: none;
        stroke: #000;
        stroke-miterlimit: 10;
        stroke-width: 100px;
      }

      .st1 {
        display: none;
      }
    </style>
  </defs>
  <g id="path">
    <path class="st0" d="M-218.4,527.3s333.2,72.8,520.9-15.3c90.6-42.5,142-175,235.2-199.2,85.5-22.2,120.4,77.6,70.4,124.2-72.4,67.4-158.3,154.6-89.4,230.6,67.9,75,196.7,46.8,258.3-229.3,58.2-260.7,285.1-244,321-88.4,13.5,58.7-9,144.4-77.2,224-34.1,39.8-157.1,170.9-251.9,271.3-65.4,69.3-94,98-139.8,130.8s-192.7,86-202.2-19.1c-4.1-45.1,56.6-86.3,125.3-97.5,61-10,226-15.7,226-15.7h408.5s95.1,1.1,110.1-83.7c14.8-84.3-59.4-129.7-87.1-193.5-29.3-67.7,24.6-138.1,114.5-128.5,126.3,13.5,129.4,169.8,102,279.5-21.6,86.4-49.3,132.5-21.8,181.6,55,98.3,239.4-8.4,226.8-165.6-7.1-88.6-104.3-310,0-361.7,167.3-83,462.3,180,535.2-11.5"/>
  </g>
  <g id="mask" class="st1">
    <path d="M1063.5,799.6c-48.5,1.3-107.1-4-169.2-9.6,64.8-71.4,135.6-150,164.3-183.6,36.4-42.5,63.7-89.9,78.9-137.1,15-46.4,18.1-91.6,9.1-130.7-10.4-45.1-33.8-83.5-67.5-110.9-32.7-26.6-73.9-41.1-116.2-40.9-51.8.2-102.8,22.2-143.6,62-34.6,33.8-61,78.5-78.9,133.3l91.8,41.7c13-44,32.5-79.5,57-103.5,22.4-21.9,48-33.5,74.1-33.6h.3c41.6,0,75.1,29.1,85.6,74.3,8.6,37.3-3.6,106.9-66.5,180.2-35.7,41.6-141,157.9-214.5,238.7l-87.2,99,128.7,3.9,325.4,9.6c4.9-1,9.7-2,14.4-3.2l-4.2-104.3c-13.2,6.7-37.4,13.2-81.8,14.4v.3Z"/>
  </g>
</svg>