<?xml version="1.0" encoding="UTF-8"?>
<svg id="Calque_1" xmlns="http://www.w3.org/2000/svg" version="1.1" viewBox="0 0 1560.7 1080">
  <!-- Generator: Adobe Illustrator 30.0.0, SVG Export Plug-In . SVG Version: 2.1.1 Build 123)  -->
  <path d="M254.7,154.5l674.8-2.3s-93.9-127.5,53.1-125.7,49.6,132.8,49.6,132.8l92.1-8.9,289.8-9.3s65.3,6.8,88.3,61.7,38.1,176,38.1,176v325.9s-33.3,126.9-45.7,167.6-62.3,59.3-120.5,58.1c-133.7-2.8-246.4-9.6-246.4-9.6l-76.2,5.3s69.1,141.7-63.8,131.1-65-126.7-65-126.7l-154.6,2.7-511.8-1.8h-60.2s-107.5,15.8-135.6-52.7c-42.9-104.7-43.3-150.9-43.3-150.9l1.8-370.1,47.4-141.1s44.8-60.6,83.7-64.2,104.4,2.1,104.4,2.1Z"/>
</svg>