<?xml version="1.0" encoding="UTF-8"?>
<svg id="Calque_1" xmlns="http://www.w3.org/2000/svg" version="1.1" viewBox="0 0 852.5 912.1">
  <!-- Generator: Adobe Illustrator 30.0.0, SVG Export Plug-In . SVG Version: 2.1.1 Build 123)  -->
  <defs>
    <style>
      .st0 {
        fill: #fff;
      }

      .st1 {
        display: none;
      }
    </style>
  </defs>
  <g id="fleur1" class="st1">
    <path class="st0" d="M429.4,334c-.3-12.3-7.1-13.9-13.2-13.8-4.9.1-9.7.9-14.6,1.7s-9.5,1.6-14.4,1.7c-16,.4-23-9.9-23.3-24.7v-3.6l9.5-.2v3.1c.3,10.2,5.9,13.6,15.3,13.4,4,0,8.1-.7,12.3-1.5,4.3-.8,8.5-1.4,13.2-1.5,11.1-.4,16.8,4.3,19,12.1h.4c1.7-7.9,7.5-12.9,18.6-12.9,4.7-.1,9,.3,13.2.9,4.4.6,8.4,1,12.5.9,9.7-.2,15-4.3,14.8-14v-3.1l9.5-.2v3.6c.4,14.4-5.6,25.3-23.2,25.7-4.7.1-9.6-.5-14.3-1.1-4.7-.6-9.4-1.2-14.1-1.1-5.4.1-12.8,2-12.5,14.4l-8.9.2h.2Z"/>
    <path class="st0" d="M277.6,162.7c-.4-6.8-3.2-15.9-7.7-23.9-13.8-24.9-37.9-30.5-62.9-16.6-26.9,14.9-33.5,39.3-20.2,63.3,4.7,8.5,10.5,14.7,15.7,18.3l-9,9.1c-3.8-2.5-10.9-9-18-21.8-17.5-31.8-7.8-65.5,24.3-83.2,33.6-18.5,63.9-6.9,79.8,22,6.9,12.5,9.8,23.5,10.1,29.8l-12,3.1h-.1Z"/>
    <path class="st0" d="M467.9,183.8l-24.3,10.7v.4l24.2,10.7-6,10.6-21.2-16.2h-.4l3.4,25.5h-11.8l3.2-25.7h-.4l-21.1,16.6-6.3-9.9,24.5-11.4v-.4l-24.4-10.3,6.2-11,20.9,16.6h.4l-3.2-26.2h11.8l-3.4,26.2h.4l21.6-16.6,6,10.4h-.1Z"/>
    <path class="st0" d="M250.1,149.3c12.9,16.9,32.1,31.9,62.3,40.6,29.7,8.5,53.7,5.4,73.8-1.7l-3.3,11.5c-16.9,6.6-41.5,11.8-74.1,2.5-32.9-9.6-51-26.9-62.1-41.4l3.3-11.5h0Z"/>
    <path class="st0" d="M587.9,161.9c.9-6.1,4.9-16.9,13-28.6,18.7-27.2,50-35.8,81.6-14,30.2,20.8,36.5,55.3,16,85.2-8.3,12-16.1,17.8-20,19.9l-8.1-10c5.5-3.1,11.9-8.7,17.4-16.7,15.6-22.6,11.5-47.6-13.9-65-23.6-16.2-48.1-13.1-64.3,10.4-5.2,7.6-9,16.4-10,23.1l-11.6-4.2h-.1Z"/>
    <path class="st0" d="M362.6,55.5c-.7-6.3-4-14.7-8.9-21.8-14.9-22-38.8-24.5-62.5-8.5-25.5,17.2-30.5,41.1-16.2,62.4,5.1,7.5,11.1,12.7,16.4,15.6l-8.3,9.7c-3.8-1.9-11.2-7.3-18.8-18.6-19-28.1-11.3-61.2,19-81.7,31.8-21.5,62.1-13.9,79.3,11.6,7.4,11,10.9,21.2,11.5,27l-11.6,4.3h0Z"/>
    <path class="st0" d="M392.3,169.5l-83.4-35.6,9.2-7.6,69.5,30.6.3-.2-17.1-74,9.2-7.6,19.4,88.5-7.2,6h.1Z"/>
    <path class="st0" d="M485.4,178l19.4-88.6,9.2,7.6-17.1,74,.3.2,69.5-30.6,9.2,7.6-83.4,35.6-7.2-6h0v.2h.1Z"/>
    <path class="st0" d="M492.4,211.5l87.4,24.2-8.1,8.8-73-21.1-.2.2,26.8,71.1-8.1,8.8-31-85.2,6.4-6.9h-.2Z"/>
    <path class="st0" d="M387.3,221.2l-31,85.2-8.1-8.8,26.8-71.1-.2-.2-73,21.1-8.1-8.8,87.4-24.2,6.4,6.9h-.2,0Z"/>
    <path class="st0" d="M625.2,163.1c-11,14.5-29.2,31.8-62,41.4-32.6,9.3-57.2,4.1-74.1-2.5l-3.3-11.5c20.1,7.1,44.1,10.2,73.8,1.7,30.2-8.6,49.4-23.7,62.3-40.6l3.3,11.5h0Z"/>
    <path class="st0" d="M213.5,220.5c10.7,18.3,27.9,35.6,56.9,47.8,28.5,12,52.7,11.9,73.5,7.3l-4.7,11c-17.5,4.5-42.6,6.7-73.8-6.5-31.4-13.5-47.4-32.9-56.6-48.6l4.7-11h0Z"/>
    <path class="st0" d="M665.4,238.9c-9.2,15.8-25.1,35.1-56.6,48.6-31.2,13.2-56.3,11-73.8,6.5l-4.7-11c20.8,4.6,45,4.7,73.5-7.3,29-12.2,46.2-29.5,56.9-47.8l4.7,11h0Z"/>
    <path class="st0" d="M514.9,53c.6-5.8,4.1-16,11.5-27,17.2-25.5,47.5-33.1,79.3-11.6,30.4,20.5,38,53.6,19,81.7-7.6,11.3-15,16.7-18.8,18.6l-8.3-9.7c5.3-2.9,11.3-8,16.4-15.6,14.3-21.2,9.3-45.2-16.2-62.3-23.8-16-47.6-13.6-62.5,8.5-4.8,7.1-8.1,15.4-8.8,21.8l-11.6-4.3h0Z"/>
    <path class="st0" d="M390.1,85.1c-2.7-5.2-5.5-15.6-5.4-28.9.2-30.8,21.2-53.8,59.6-53.5,36.6.3,61.3,23.6,61.1,57.5-.1,13.6-3.3,22.2-5.4,25.9l-12.3-3.5c2.8-5.3,5-12.9,5-22,.2-25.6-17.2-42.8-48-43-28.7-.2-47.2,15.1-47.4,41.6,0,8.6,1.8,17.4,4.7,23l-12,2.8h0Z"/>
    <path class="st0" d="M335.8,359c3.8-11.7-2.1-15.5-7.9-17.3-4.6-1.5-9.5-2.3-14.3-3.1-4.8-.8-9.5-1.6-14.1-3.1-15.2-4.9-18.5-16.9-14-30.9l1.1-3.5,9.1,2.9-1,3c-3.1,9.8,1.1,14.8,10,17.6,3.8,1.2,7.9,2,12.1,2.6,4.4.7,8.5,1.4,12.9,2.9,10.6,3.2,14.4,9.6,14,17.6h.3c4.2-6.8,11.3-9.6,21.9-6,4.5,1.4,8.4,3.3,12.2,5.2,3.9,2,7.6,3.7,11.5,5,9.3,3,15.6.8,18.6-8.4l1-3,9.1,2.9-1.1,3.5c-4.4,13.7-13.6,22.1-30.4,16.7-4.5-1.4-8.9-3.6-13.1-5.7s-8.5-4.2-13-5.6c-5.1-1.6-12.8-2.3-16.5,9.5l-8.4-2.7h0Z"/>
    <path class="st0" d="M523.9,360.7c-3-12-10.6-11.9-15.9-10.6-4.5,1.1-8.9,2.9-13.3,4.7-4.4,1.8-8.9,3.6-13.5,4.8-17,4.2-25.7-4.7-29.2-18.7l-.9-3.5,9.3-2.3.8,3c2.3,9.4,8.5,12,18,9.7,4-1,7.8-2.5,11.8-4.2,3.9-1.7,8-3.2,12.5-4.4,10.8-2.8,17.6.5,21.4,7.6h.3c0-8.2,4.4-14.2,15.2-16.7,4.5-1.1,8.7-1.6,13.1-2,4.2-.3,8.4-.8,12.3-1.8,9.1-2.3,13.7-7,11.2-16.9l-.8-3,9.3-2.3.9,3.5c3.5,14.3-.5,26.1-16,29.9-4.7,1.2-9.4,1.6-14.3,2.1s-9.8,1-14.5,2.2c-5.9,1.5-12.1,4.8-9.1,16.8l-8.6,2.1h0Z"/>
  </g>
  <g id="_1" class="st1">
    <path class="st0" d="M360.4,509.2c-13.2,12.6-33.9,26.8-67.9,31-33.6,4-57.1-5.1-72.7-14.2l-1.4-11.9c18.7,10.2,41.9,17,72.6,13.4,31.2-3.7,52.5-15.5,68-30.1l1.4,11.9h0Z"/>
    <path class="st0" d="M385.5,546.7l1.5,173.7h-11.6l-1.5-173.6h11.6Z"/>
    <path class="st0" d="M486.3,371.1l1.5,173.7h-11.6l-1.5-173.6h11.6Z"/>
    <path class="st0" d="M484.3,713.1c-11.4-14.2-23.7-36.1-25-70.3-1.1-33.8,10.1-56.4,20.5-71.2l12-.4c-11.8,17.7-20.6,40.3-19.7,71.2,1,31.4,10.9,53.7,24.1,70.3l-12,.4h.1Z"/>
    <path class="st0" d="M372.9,515.3c12.7-17,21.9-39.6,21.8-71.1,0-30.9-9.6-53.1-22-70.5h12c11,14.4,22.8,36.6,22.8,70.5-.1,34.2-11.8,56.5-22.7,71.1h-12,.1Z"/>
    <path class="st0" d="M418.5,390.6h10.4l.3,89.6h-10.4l-.3-89.6ZM452.5,390.5h10.4l.3,89.6h-10.4l-.3-89.6Z"/>
    <path class="st0" d="M374,415.2c-11,14.5-29.2,31.8-62,41.4-32.6,9.3-57.2,4.1-74.1-2.5l-3.3-11.5c20.1,7.1,44.1,10.2,73.8,1.7,30.2-8.6,49.4-23.7,62.3-40.6l3.3,11.5h0Z"/>
    <path class="st0" d="M401.3,624.4h10.4l.3,89.6h-10.4l-.3-89.6ZM435.4,624.3h10.4l.3,89.6h-10.4l-.3-89.6Z"/>
    <path class="st0" d="M386.7,737.1l1.5,173.7h-11.6l-1.5-173.6h11.6Z"/>
    <path class="st0" d="M488.6,738.3l1.5,173.7h-11.6l-1.5-173.6h11.6Z"/>
    <path class="st0" d="M418.4,815.9h10.4l.3,89.6h-10.4l-.3-89.6ZM452.5,815.8h10.4l.3,89.6h-10.4l-.3-89.6Z"/>
  </g>
  <g id="feuille_gauche">
    <path class="st0" d="M152.4,367c18.1-2.1,43.2-1,72.9,16,29.3,17,42.6,38.4,49.5,55.1l-6,10.4c-8.8-19.4-23.2-38.8-49.9-54.4-27.2-15.8-51.3-19.2-72.4-16.8l6-10.4h-.1Z"/>
    <path class="st0" d="M126.9,365.7c-18,3-43.1,3-73.5-12.7-30-15.7-44.3-36.4-52-52.8l5.5-10.6c9.7,19,25,37.7,52.4,52,27.9,14.5,52.2,16.8,73.1,13.5,0,0-5.5,10.6-5.5,10.6Z"/>
    <path class="st0" d="M42.3,479.8c-14-11.6-30.5-30.6-38.7-63.8-7.9-32.9-1.6-57.3,5.7-73.9l11.7-2.8c-8,19.8-12.1,43.6-4.9,73.7,7.3,30.6,21.5,50.4,37.8,64l-11.7,2.8h.1Z"/>
    <path class="st0" d="M204.5,537.9c-15.9,9-39.4,17.7-73.4,13.4-33.6-4.3-54.1-18.9-67-31.6l1.5-11.9c15.6,14.5,36.5,26.8,67.1,30.8,31.2,4,54.8-2.2,73.3-12.6l-1.5,11.9h0Z"/>
    <path class="st0" d="M82.9,391.1l154.7,79-5.3,10.4-154.7-79s5.3-10.4,5.3-10.4Z"/>
  </g>
  <g id="feuille_droite" class="st1">
    <path class="st0" d="M660.4,420.3c-21,3.2-43.4,12.9-65.4,35.3-21.7,22-30.5,44.6-33.9,65.6l-8.5-8.4c2.3-18,9.5-42.1,33.3-66.2,24.1-24.3,48-31.9,66-34.7l8.5,8.4h0Z"/>
    <path class="st0" d="M682.2,399.3c19.9,7.5,44.1,10,74.3,1.3,29.7-8.6,48.4-23.9,61.7-40.6l3.3,11.5c-10.8,14.5-28.9,32-61.5,41.4-32.9,9.3-57.5,4.3-74.6-2.2l-3.3-11.5h0Z"/>
    <path class="st0" d="M797.6,496.7c16.4-13.4,30.8-33.1,38.5-63.6,7.5-30,3.6-53.9-4.1-73.7l11.6,2.9c7.1,16.6,13.2,41.1,5,73.9-8.5,33.1-25.2,51.9-39.3,63.4l-11.6-2.9h-.1Z"/>
    <path class="st0" d="M663.8,564.3c20.7,4.8,45,4.2,73.9-8.3,28.3-12.4,44.9-30,55.9-48.3l4.8,11c-8.8,15.8-24.5,35.5-55.5,49.1-31.4,13.5-56.5,11.8-74.2,7.5l-4.8-11h-.1Z"/>
    <path class="st0" d="M781.4,444.5l-154.7,79-5.3-10.4,154.7-79,5.3,10.4h0Z"/>
    <path class="st0" d="M519.8,666.9c21.2,0,44.8-6.3,69.9-25.2,24.7-18.6,36.8-39.6,43.2-59.9l7.2,9.6c-5,17.4-15.6,40.2-42.7,60.6-27.5,20.4-52.2,24.5-70.5,24.5l-7.2-9.6h0Z"/>
    <path class="st0" d="M491.9,592.4c20.9-3.7,43.1-13.8,64.6-36.7,21.2-22.5,29.5-45.2,32.4-66.4l8.7,8.2c-1.9,18-8.5,42.3-31.8,67-23.6,24.8-47.3,33-65.2,36.1l-8.7-8.2h0Z"/>
  </g>
</svg>