<?xml version="1.0" encoding="UTF-8"?>
<svg id="uuid-808351b6-ad1c-4d11-8f81-4d49517e54b2" data-name="uuid-151c7878-aa13-44ce-bea3-edd44a304905" xmlns="http://www.w3.org/2000/svg" viewBox="0 0 223.99 326.09">
  <path d="M92.13.05c-.33,0-.65,0-.99,0q-13.23-.1-19.29,1.43c-.38.09-.75.18-1.14.27-10.32,2.42-19.82,6.38-28.31,13.48q-.98.86-1.85,1.31v.89c-.23.12-.45.24-.69.36-.93.54-1.74,1.16-2.58,1.85q-.42.34-.85.69c-.21.21-.42.42-.64.64v.89c-.24.12-.47.24-.72.36-.87.53-1.43,1.01-2.06,1.85v.89h-.79c-.63.8-1.21,1.59-1.78,2.44-.17.26-.35.51-.53.78-3.48,5.22-6.35,10.81-8.78,16.71-.13.31-.26.63-.39.95-3.15,7.76-5.4,15.86-7.24,24.12-.12.53-.24,1.06-.36,1.6-1.45,6.56-2.75,13.16-4.04,19.76-.35,1.76-.69,3.52-1.04,5.29-.41,2.1-.83,4.2-1.24,6.3-.75,3.83-1.52,7.65-2.3,11.48q-5.69,27.97-1.88,35.27c1.22,1.93,2.58,2.82,4.63,3.29.59.04,1.19.05,1.78.05q.52,0,1.06,0c.37,0,.75,0,1.13,0q.58,0,1.17,0c1.23,0,2.45,0,3.68-.01.83,0,1.67,0,2.5,0,2.04,0,4.08-.01,6.12-.02-.06.37-.11.74-.17,1.13-.55,3.9-.76,7.68-.75,11.63,0,.58,0,1.16,0,1.76.05,4.32.35,8.3,1.31,12.49.07.3.13.6.2.91,1.14,5.12,2.91,9.85,4.95,14.59.2.47.4.94.61,1.43,1.39,3.06,3.18,5.45,5.34,7.87.27.3.54.61.81.92,3.4,3.62,7.41,5.99,11.66,8.11.27.13.53.27.81.4,1.35.67,2.7,1.33,4.06,1.98,6.1,2.94,10.18,6.41,12.77,13.39,1.2,3.59,2.19,7.26,3.23,10.91,2.75,9.65,5.77,18.52,11.82,26.29h.79v.89c1.93,1.98,4.27,3.48,6.54,4.93.32.21.65.42.98.63,12.4,7.85,25.71,13.95,38.83,20.13.46.22.92.43,1.4.66,12.41,5.82,25.07,10.88,37.8,15.78.85.33,1.7.66,2.56.99,9.95,3.84,19.97,7.45,30.18,10.34.28.08.56.16.85.24,4.1,1.16,8.21,2.24,12.34,3.22q.68.16,1.37.33c2.99.68,5.94,1.04,8.98,1.22v-3.54c-.28-.05-.55-.1-.84-.15-18.72-3.49-37.33-9.33-55.07-16.87-2.18-.92-4.38-1.77-6.58-2.61-11.02-4.18-21.86-8.86-32.59-13.91-1.37-.64-2.74-1.27-4.11-1.89-2.57-1.17-5.1-2.4-7.6-3.72-1.3-.68-2.62-1.33-3.93-1.97-2.86-1.41-5.69-2.87-8.47-4.46-1.72-.98-3.45-1.9-5.2-2.8-11.88-6.14-19.8-13.88-24.55-27.79-1.05-3.38-1.95-6.82-2.86-10.25-1.09-4.07-2.22-8.03-3.91-11.85-.12-.28-.25-.56-.38-.85-3.26-6.98-9.71-9.63-15.85-12.55-3.77-1.81-7.12-3.73-10.38-6.54-.88-.74-1.67-1.31-2.67-1.8v-.89h-.79c-.1-.25-.2-.5-.3-.75-.55-1.16-1.22-2.12-1.95-3.15-2.99-4.55-4.74-9.87-6.46-15.14.23.08.45.16.68.24,1.58.36,2.98-.04,4.47-.68,1.34-1.22,1.86-1.85,2.14-3.74.09-2.79-.4-4.4-2.1-6.49-2.07-2.12-4.6-4.39-7.56-4.39.12-1.88.25-3.76.37-5.65.03-.53.07-1.07.1-1.62.03-.51.07-1.03.1-1.56.03-.47.06-.95.09-1.43.1-1.06.27-2.01.51-3.03.05-1.18.02-2.36,0-3.54-2.2-1.24-3.87-1.5-6.31-1.43q-.5,0-1,.01c-1.05.01-2.1.04-3.16.06-1.05.02-2.1.04-3.15.05-.65,0-1.3.02-1.95.04-2.4.03-4.89-.03-6.75-1.89-3.59-7.1-.7-17.79.75-25.23.1-.52.2-1.05.31-1.59,1.41-7.26,2.86-14.52,4.31-21.77.33-1.65.66-3.31.99-4.96,1.57-7.87,3.14-15.75,4.81-23.6.1-.49.21-.98.31-1.49,2.57-11.92,6.71-23.82,12.95-33.96q.68-1.17.68-2.06h.79c.49-.7.94-1.43,1.39-2.16,9.66-15.09,26.77-22.98,42.58-26.06,16.26-2.81,32.75.27,47.15,9.17.28.17.55.34.84.52,5.25,3.26,9.87,6.98,14.24,11.61q.76.72,1.56.72v.89h.79c.13.44.26.88.4,1.33h.79v.89h.79v.89h.79c.09.25.19.5.29.75.61,1.24,1.37,2.15,2.24,3.18,1.03,1.24,1.99,2.44,2.8,3.88q.31.52.62,1.05h.79c.11.26.22.52.34.79.41.9.86,1.72,1.36,2.55q.26.45.53.9c.19.32.37.63.57.96,7.86,13.48,12.82,28.11,9.88,44.4-2.84,12.59-9.08,23.34-15.06,34.3-.14.25-.28.51-.42.77-.6,1.09-1.19,2.18-1.79,3.27-4.19,7.6-7.28,15.44-9.27,24.1-.1.44-.2.88-.31,1.33-2.44,12.68-.64,27.15,5.53,38.14,1.78,3.06,3.88,5.87,6.26,8.36h.79v.89c7.07,6.19,16.18,9.25,24.56,12.4.25.1.51.19.77.29,13.7,5.13,27.72,9.06,41.75,12.91.35.1.7.19,1.06.29.97.27,1.95.53,2.93.8.29.08.57.16.86.24,1.3.35,2.39.53,3.75.53v-3.1c-2.65-.91-5.31-1.74-8-2.5-.79-.23-1.58-.45-2.37-.68-.41-.12-.82-.24-1.25-.36q-27.67-7.53-54.15-19.05c-.25-.14-.5-.27-.76-.41-8.4-4.68-13.89-12.72-17.17-22.42-4.29-15.41-.73-30.91,5.71-44.83,2.06-4.32,4.44-8.43,6.81-12.54,9.29-16.16,16.87-33.9,13.33-53.55-2.05-10.25-5.95-19.44-11.49-27.9-.36-.58-.72-1.15-1.08-1.73-.36-.58-.72-1.15-1.08-1.73q-.25-.41-.51-.83c-.41-.65-.85-1.28-1.3-1.91h-.79c-.09-.24-.18-.49-.28-.74-1.2-2.41-3.17-4.36-4.87-6.35q-.31-.37-.63-.74c-2.98-3.49-6.08-6.75-9.67-9.45h-.79v-.89c-1.37-1.17-2.88-2.11-4.36-3.1-.23-.16-.46-.31-.69-.47C117.8,5.24,104.86.13,92.13.05Z" style="fill: #fff;"/>
  <path d="M97.61,88.27v.89h-.79q-1.94,2.17-2.1,4.15c.04.38.08.77.12,1.16q2.28.06,3.17-.44v-.89h.79c.21-.33.42-.66.64-1,1.46-1.9,2.97-2.81,5.2-3.16,2.83-.12,4.23.5,6.33,2.65,2.87,3.25,4.16,7.31,4.29,11.83-.12,3.07-.54,5.16-2.55,7.3-1.93,1.76-4.03,3.17-6.19,4.54-1.63,1.44-2.4,2.93-2.76,5.18-.13,1.36-.23,2.72-.3,4.08-.03.47-.06.94-.09,1.43-.07,1.16-.14,2.31-.2,3.47-1.09-1.14-1.52-2.07-2.01-3.65-.13-.43-.27-.86-.4-1.3-.42-1.44-.81-2.88-1.16-4.34q-1.88-.5-2.77,0c-.2,4.58.78,8.62,3.17,12.4.95.98,1.48,1.31,2.77,1.36,1.33-.1,2.18-.26,3.15-1.31,1-2.23.94-4.48,1.02-6.91q.11-3.75,1.77-6.84c.32-.22.64-.44.97-.67q.53-.39,1.07-.78c.37-.26.75-.53,1.14-.8,3.39-2.41,5.33-4.46,6.57-8.79,1.02-6.06-.15-11.99-3.11-17.15-1.84-2.68-4.3-4.77-7.31-5.43-4.1-.37-7.03.49-10.42,3.02Z" style="fill: #fff;"/>
  <path d="M65.92,138.31l-.79.89q.15,1.16.4,2.21c.57-.06,1.14-.13,1.71-.19.32-.04.63-.07.96-.11q.9-.14,2.08-.58c5.42-.62,10.2,2.01,14.4,5.69,2.71,2.78,4.42,6.61,4.71,10.73.09,4.83-.75,8.45-3.26,12.37v.89h-.79q-.29.47-.59.94c-2.3,2.96-5.95,4.95-9.44,5.37-2.43.08-4.56-.35-6.61-1.88q-1.24-.08-2.38,0-.4.44-.42,1.8c0,.43.02.86.02,1.3,3.81,2.72,7.93,3.33,12.37,2.38,3.26-.99,6.02-2.62,8.62-5.04v-.89h.79c4.08-4.9,5.49-11.07,5.28-17.62-.28-4.86-1.92-8.92-4.89-12.5h-.79v-.89c-5.83-5.48-14.14-8.57-21.39-4.87Z" style="fill: #fff;"/>
  <path d="M40.56,99.58c-1.84.47-2.58,2.54-3.57,4.19-.65,2.81-.79,5.87.1,8.61,1.31,2.15,2.35,3.19,4.65,3.79,2,.2,3.13.02,4.75-1.33,1.34-1.49,1.27-3.15,1.31-5.2-.03-3.83-1.41-6.22-3.69-8.97-1.26-.94-2.06-1.12-3.57-1.09Z" style="fill: #fff;"/>
  <path d="M103.56,94.02c-1.3,1.09-2.27,2.24-2.77,3.99-.03,1.03-.04,2.07,0,3.1q1.06.22,2.38,0c.61-.88,1.04-1.77,1.48-2.77.17-.26.33-.51.5-.78h1.58c.48,1.6.52,2.74.4,4.43-.99,2.16-2.46,3.68-4.04,5.3-1.4,1.76-1.61,3.38-1.56,5.69,0,.43.01.86.02,1.31,0,.33.02.65.03.99q1.89.5,2.67,0,.5-.89.54-2.24c.19-2.24,1.7-3.51,3.03-5.07,1.66-2.08,2.77-4.58,2.96-7.39-.14-2.4-.53-4.41-2.1-6.12-1.73-.66-3.32-.8-5.13-.44Z" style="fill: #fff;"/>
</svg>