<?xml version="1.0" encoding="UTF-8"?>
<svg id="uuid-915eba77-cb82-406d-9be5-9bea60e5dd04" xmlns="http://www.w3.org/2000/svg" version="1.1" viewBox="0 0 224 326.1">
  <!-- Generator: Adobe Illustrator 30.0.0, SVG Export Plug-In . SVG Version: 2.1.1 Build 123)  -->
  <defs>
    <style>
      .st0 {
        fill: #fff;
      }
    </style>
  </defs>
  <path class="st0" d="M30.9,159.2"/>
  <path class="st0" d="M30.1,160.1c-.5.7-1.1,1.5-1.6,2.2,0-1,.1-2,.2-3,0-.6,0-1.1.1-1.7.1-1.2.3-2.2.5-3.3,0-1.2,0-2.4,0-3.5-2.2-1.2-3.9-1.5-6.3-1.4-.3,0-.7,0-1,0-1,0-2.1,0-3.2,0-1,0-2.1,0-3.1,0-.6,0-1.3,0-1.9,0-2.4,0-4.9,0-6.8-1.9-3.6-7.1-.7-17.8.8-25.2,0-.5.2-1.1.3-1.6,1.4-7.3,2.9-14.5,4.3-21.8.3-1.7.7-3.3,1-5,1.6-7.9,3.1-15.8,4.8-23.6.1-.5.2-1,.3-1.5,2.6-11.9,6.7-23.8,13-34,.5-.8.7-1.5.7-2.1h.8c.5-.7.9-1.4,1.4-2.2,9.7-15.1,26.8-23,42.6-26.1,16.3-2.8,32.8.3,47.2,9.2.3.2.6.3.8.5,5.3,3.3,9.9,7,14.2,11.6.5.5,1,.7,1.6.7v.9h.8c.1.4.3.9.4,1.3h.8v.9h.8v.9h.8c0,.2.2.5.3.8.6,1.2,1.4,2.2,2.2,3.2,1,1.2,2,2.4,2.8,3.9.2.3.4.7.6,1.1h.8c.1.3.2.5.3.8.4.9.9,1.7,1.4,2.5.2.3.4.6.5.9.2.3.4.6.6,1,7.9,13.5,12.8,28.1,9.9,44.4-2.8,12.6-9.1,23.3-15.1,34.3-.1.2-.3.5-.4.8-.6,1.1-1.2,2.2-1.8,3.3-4.2,7.6-7.3,15.4-9.3,24.1-.1.4-.2.9-.3,1.3-2.4,12.7-.6,27.1,5.5,38.1,1.8,3.1,3.9,5.9,6.3,8.4h.8v.9c7.1,6.2,16.2,9.2,24.6,12.4.2.1.5.2.8.3,13.7,5.1,27.7,9.1,41.8,12.9.4.1.7.2,1.1.3,1,.3,1.9.5,2.9.8.3,0,.6.2.9.2,1.3.4,2.4.5,3.8.5v-3.1c-2.6-.9-5.3-1.7-8-2.5-.8-.2-1.6-.4-2.4-.7-.4-.1-.8-.2-1.2-.4-18.4-5-36.5-11.4-54.1-19.1-.2-.1-.5-.3-.8-.4-8.4-4.7-13.9-12.7-17.2-22.4-4.3-15.4-.7-30.9,5.7-44.8,2.1-4.3,4.4-8.4,6.8-12.5,9.3-16.2,16.9-33.9,13.3-53.5-2.1-10.2-5.9-19.4-11.5-27.9-.4-.6-.7-1.1-1.1-1.7-.4-.6-.7-1.2-1.1-1.7-.2-.3-.3-.5-.5-.8-.4-.7-.9-1.3-1.3-1.9h-.8c0-.2-.2-.5-.3-.7-1.2-2.4-3.2-4.4-4.9-6.4-.2-.2-.4-.5-.6-.7-3-3.5-6.1-6.8-9.7-9.4h-.8v-.9c-1.4-1.2-2.9-2.1-4.4-3.1-.2-.2-.5-.3-.7-.5C118.8,5.2,105.9.1,93.1,0h-1c-8.8,0-15.2.4-19.3,1.4-.4,0-.8.2-1.1.3-10.3,2.4-19.8,6.4-28.3,13.5-.7.6-1.3,1-1.8,1.3v.9c-.2.1-.5.2-.7.4-.9.5-1.7,1.2-2.6,1.8-.3.2-.6.5-.8.7-.2.2-.4.4-.6.6v.9c-.2.1-.5.2-.7.4-.9.5-1.4,1-2.1,1.9v.9h-.8c-.6.8-1.2,1.6-1.8,2.4-.2.3-.4.5-.5.8-3.5,5.2-6.4,10.8-8.8,16.7-.1.3-.3.6-.4,1-3.1,7.8-5.4,15.9-7.2,24.1-.1.5-.2,1.1-.4,1.6-1.4,6.6-2.8,13.2-4,19.8-.4,1.8-.7,3.5-1,5.3-.4,2.1-.8,4.2-1.2,6.3-.8,3.8-1.5,7.6-2.3,11.5-3.8,18.6-4.4,30.4-1.9,35.3,1.2,1.9,2.6,2.8,4.6,3.3.6,0,1.2,0,1.8,0h3.4c1.2,0,2.4,0,3.7,0h2.5c2,0,4.1,0,6.1,0,0,.4-.1.8-.2,1.1-.6,4-.8,7.9-.8,11.6,1.2.2,3.4,1,4.8-.4,3.1-3.2,3.5-4.1,5.1-5.7,5.1-5.3,15.8-9.2,23.6-6.5,7.8,2.6,11.1,10.5,11.8,12.4,2.5,6.6,2.1,15.6-3.6,21.9-.6.6-6.6,7-14.4,6.4-7-.6-17.5-6.2-18.5-6.2-2.3,0-4.1.6-5.2.9,1.1,3.5,2.4,6.3,3.5,8.4,2.3,4.2,4.6,7,5.3,7.9.3.3.5.6.8.9,3.4,3.6,7.4,6,11.7,8.1.3.1.5.3.8.4,1.3.7,2.7,1.3,4.1,2,6.1,2.9,10.2,6.4,12.8,13.4,1.2,3.6,2.2,7.3,3.2,10.9,2.8,9.6,5.8,18.5,11.8,26.3h.8v.9c1.9,2,4.3,3.5,6.5,4.9.3.2.7.4,1,.6,12.4,7.9,25.7,14,38.8,20.1.5.2.9.4,1.4.7,12.4,5.8,25.1,10.9,37.8,15.8.9.3,1.7.7,2.6,1,9.9,3.8,20,7.5,30.2,10.3.3,0,.6.2.9.2,4.1,1.2,8.2,2.2,12.3,3.2.5.1.9.2,1.4.3,3,.7,5.9,1,9,1.2v-3.5c-.3,0-.6-.1-.8-.1-18.7-3.5-37.3-9.3-55.1-16.9-2.2-.9-4.4-1.8-6.6-2.6-11-4.2-21.9-8.9-32.6-13.9-1.4-.6-2.7-1.3-4.1-1.9-2.6-1.2-5.1-2.4-7.6-3.7-1.3-.7-2.6-1.3-3.9-2-2.9-1.4-5.7-2.9-8.5-4.5-1.7-1-3.4-1.9-5.2-2.8-11.9-6.1-19.8-13.9-24.6-27.8-1.1-3.4-1.9-6.8-2.9-10.2-1.1-4.1-2.2-8-3.9-11.9-.1-.3-.2-.6-.4-.9-3.3-7-9.7-9.6-15.8-12.6-3.8-1.8-7.1-3.7-10.4-6.5-.9-.7-1.7-1.3-2.7-1.8l-.4-.4-.4-.5c0-.2-.2-.5-.3-.7-.6-1.2-1.3-2.2-2-3.3-1.4-2.1-2.6-4.2-3.6-6.6.3.2.5.3.8.5,7.8,4.6,16.4,6.9,24.9,3.9,5.6-2.2,10.1-6.4,12.7-12.4,2.3-6.6,3-14.1.8-20.8-2-5.1-5.2-8.8-9.8-11.2-7.5-3.2-14.8-2.4-22.1,1.1-2.6,1.3-5,2.9-7.3,4.7-.3.2-.6.5-.9.7-.2.2-.5.4-.7.6"/>
  <path class="st0" d="M98.6,88.3v.9h-.8c-1.3,1.4-2,2.8-2.1,4.2,0,.4,0,.8.1,1.2,1.5,0,2.6-.1,3.2-.4v-.9h.8c.2-.3.4-.7.6-1,1.5-1.9,3-2.8,5.2-3.2,2.8-.1,4.2.5,6.3,2.7,2.9,3.2,4.2,7.3,4.3,11.8-.1,3.1-.5,5.2-2.6,7.3-1.9,1.8-4,3.2-6.2,4.5-1.6,1.4-2.4,2.9-2.8,5.2-.1,1.4-.2,2.7-.3,4.1,0,.5,0,.9,0,1.4,0,1.2-.1,2.3-.2,3.5-1.1-1.1-1.5-2.1-2-3.7-.1-.4-.3-.9-.4-1.3-.4-1.4-.8-2.9-1.2-4.3-1.3-.3-2.2-.3-2.8,0-.2,4.6.8,8.6,3.2,12.4.9,1,1.5,1.3,2.8,1.4,1.3-.1,2.2-.3,3.2-1.3,1-2.2.9-4.5,1-6.9,0-2.5.7-4.8,1.8-6.8.3-.2.6-.4,1-.7.4-.3.7-.5,1.1-.8.4-.3.8-.5,1.1-.8,3.4-2.4,5.3-4.5,6.6-8.8,1-6.1-.2-12-3.1-17.2-1.8-2.7-4.3-4.8-7.3-5.4-4.1-.4-7,.5-10.4,3h0Z"/>
  <path class="st0" d="M41.6,99.6c-1.8.5-2.6,2.5-3.6,4.2-.7,2.8-.8,5.9,0,8.6,1.3,2.2,2.3,3.2,4.7,3.8,2,.2,3.1,0,4.8-1.3,1.3-1.5,1.3-3.2,1.3-5.2,0-3.8-1.4-6.2-3.7-9-1.3-.9-2.1-1.1-3.6-1.1h0Z"/>
  <path class="st0" d="M104.6,94c-1.3,1.1-2.3,2.2-2.8,4,0,1,0,2.1,0,3.1.7.1,1.5.1,2.4,0,.6-.9,1-1.8,1.5-2.8.2-.3.3-.5.5-.8h1.6c.5,1.6.5,2.7.4,4.4-1,2.2-2.5,3.7-4,5.3-1.4,1.8-1.6,3.4-1.6,5.7,0,.4,0,.9,0,1.3,0,.3,0,.7,0,1,1.3.3,2.2.3,2.7,0,.3-.6.5-1.3.5-2.2.2-2.2,1.7-3.5,3-5.1,1.7-2.1,2.8-4.6,3-7.4-.1-2.4-.5-4.4-2.1-6.1-1.7-.7-3.3-.8-5.1-.4h0Z"/>
</svg>