<?xml version="1.0" encoding="UTF-8"?>
<svg id="Calque_1" xmlns="http://www.w3.org/2000/svg" version="1.1" viewBox="0 0 1920 535.6">
  <!-- Generator: Adobe Illustrator 30.0.0, SVG Export Plug-In . SVG Version: 2.1.1 Build 123)  -->
  <defs>
    <style>
      .st0 {
        fill: #0096ff;
        stroke: #000;
        stroke-miterlimit: 10;
      }

      .st0, .st1 {
        display: none;
      }

      .st2 {
        fill: #fff;
      }

      .st3 {
        fill: red;
      }
    </style>
  </defs>
  <rect class="st0" x="-70" y="-120.3" width="2134" height="844.5"/>
  <g id="bulle_gauche" class="st1">
    <path d="M597.6,28.2c21.7,0,33.6,8.1,33.6,22.2s-11.7,20.9-32.8,21c-21.4,0-33.1-9.3-33.1-22.2s12-21,32.3-21ZM598.5,62.8c16.6,0,26-5,26-12.9s-10.3-13.1-26.5-13.1-26,4-26,12.9,9.2,13.1,26.5,13.1Z"/>
  </g>
  <g id="bulle_droite" class="st1">
    <path id="bulle_droit" d="M1245.9,266.8c0-21.7,8.1-33.6,22.2-33.6s20.9,11.7,21,32.8c0,21.4-9.3,33.1-22.2,33.1s-21-12-21-32.3ZM1280.5,265.9c0-16.6-5-26-12.9-26s-13.1,10.3-13.1,26.5,4,26,12.9,26,13.1-9.2,13.1-26.5Z"/>
  </g>
  <path class="st3" d="M1239.1,115v305.9s20.9,15.6,45.3,17.2,36.1-8,36.1-8l.5-323.8s-17.5-11.7-39.3-8.5-42.7,17.3-42.7,17.3Z"/>
  <g id="cercle">
    <path class="st2" d="M1255.4,318.1v-4.9h49v5h-49Z"/>
    <path class="st2" d="M1255.5,220.2v-4.9h49v5h-49Z"/>
    <path class="st2" d="M1235.1,315.6l.2-98h6.6l-.2,98h-6.6Z"/>
    <path class="st2" d="M1235.3,213.2l.2-98h6.6l-.2,98h-6.6Z"/>
    <path class="st2" d="M1235.5,417.4l.2-98h6.6l-.2,98h-6.6Z"/>
    <path class="st2" d="M1317,317.6l.2-98h6.6l-.2,98h-6.6Z"/>
    <path class="st2" d="M1317.1,215.1l.2-98h6.6l-.2,98h-6.6Z"/>
    <path class="st2" d="M1317.3,419.3l.2-98h6.6l-.2,98h-6.6Z"/>
    <path class="st2" d="M1128.1,227.3c-7.2,9.6-12.4,22.3-12.4,40.1s5.3,30,12.3,39.8h-6.8c-6.2-8.2-12.8-20.7-12.7-39.8,0-19.3,6.7-31.8,12.9-40.1h6.8-.1Z"/>
    <path class="st2" d="M1442.8,228.3c6.2,8.2,12.7,20.8,12.7,40.1s-6.7,31.6-12.9,39.8h-6.8c7-9.8,12.4-22.3,12.4-39.8s-5.1-30.5-12.3-40.1h6.9Z"/>
    <path class="st2" d="M1328.4,114.2c-9.6-7.2-22.3-12.4-40.1-12.4s-30,5.3-39.8,12.3v-6.8c8.2-6.2,20.7-12.8,39.8-12.7,19.3,0,31.8,6.7,40.1,12.9v6.8h0Z"/>
    <path class="st2" d="M1327.4,428.9c-8.2,6.2-20.8,12.7-40.1,12.7s-31.6-6.7-39.8-12.9v-6.8c9.8,7,22.3,12.4,39.8,12.4s30.5-5.1,40.1-12.3v6.8h0Z"/>
    <path class="st2" d="M1128.1,310.9c-1.4,11.9.4,25.5,9.3,40.9,8.7,15.1,19.6,23.3,30.5,28.4l-5.9,3.4c-9.4-4-21.4-11.5-31-28.1-9.5-16.8-10.1-30.9-8.8-41.2l5.9-3.4h0Z"/>
    <path class="st2" d="M1401.1,154.4c9.5,4.1,21.4,11.7,31.1,28.4,9.5,16.6,10,30.8,8.7,40.9l-5.9,3.4c1.2-12-.4-25.5-9.1-40.7-8.8-15.4-19.7-23.9-30.7-28.6l5.9-3.4h0Z"/>
    <path class="st2" d="M1172.9,381.2c4.7,11,13.1,21.9,28.5,30.8,15.1,8.8,28.6,10.4,40.6,9.3l-3.4,5.8c-10.1,1.3-24.3.7-40.9-8.9-16.7-9.8-24.2-21.8-28.2-31.2l3.4-5.8h0Z"/>
    <path class="st2" d="M1331.1,109.1c10.2-1.2,24.4-.6,41.1,9,16.5,9.6,24,21.7,28,31.1l-3.4,5.8c-5-10.9-13.1-21.9-28.2-30.7-15.3-8.9-29-10.8-40.9-9.4l3.4-5.8Z"/>
    <path class="st2" d="M1447,312.4c1.2,10.2.6,24.4-9,41.1-9.6,16.5-21.7,24-31.1,28l-5.8-3.4c10.9-5,21.9-13.1,30.7-28.2,8.9-15.3,10.8-29,9.4-40.9l5.8,3.4Z"/>
    <path class="st2" d="M1174.6,154.6c-11,4.7-21.9,13.1-30.8,28.5-8.8,15.1-10.4,28.6-9.3,40.6l-5.8-3.4c-1.3-10.1-.7-24.3,8.9-40.9,9.8-16.7,21.8-24.2,31.2-28.2l5.8,3.4h0Z"/>
    <path class="st2" d="M1399.4,384.9c-4.1,9.5-11.7,21.4-28.4,31.1-16.6,9.5-30.8,10-40.9,8.7l-3.4-5.9c12,1.2,25.5-.4,40.7-9.1,15.4-8.8,23.9-19.7,28.6-30.7l3.4,5.9h0Z"/>
    <path class="st2" d="M1242.4,112.1c-11.9-1.4-25.5.4-40.9,9.3-15.1,8.7-23.3,19.6-28.4,30.5l-3.4-5.9c4-9.4,11.5-21.4,28.1-31,16.8-9.5,30.9-10.1,41.2-8.8l3.4,5.9h0Z"/>
    <path class="st2" d="M1246.1,453.9c9.6,7.2,22.3,12.4,40.1,12.4s30-5.3,39.8-12.3v6.8c-8.2,6.2-20.7,12.8-39.8,12.7-19.3-.1-31.8-6.7-40.1-12.9v-6.8h0Z"/>
    <path class="st2" d="M1247,74.4c8.2-6.2,20.8-12.7,40.1-12.7s31.6,6.7,39.8,12.9v6.8c-9.8-7-22.3-12.4-39.8-12.4s-30.5,5.1-40.1,12.3v-6.8h0Z"/>
    <path class="st2" d="M1345.7,450.5c11.9,1.4,25.5-.4,40.9-9.3,15.1-8.7,23.3-19.6,28.4-30.5l3.4,5.9c-4,9.4-11.5,21.4-28.1,31-16.8,9.5-30.9,10.1-41.2,8.8l-3.4-5.9h0Z"/>
    <path class="st2" d="M1156.7,121.4c4.1-9.5,11.7-21.4,28.4-31.1,16.6-9.5,30.8-10,40.9-8.7l3.4,5.9c-12-1.2-25.5.4-40.7,9.1-15.4,8.8-23.9,19.7-28.6,30.7l-3.4-5.9h0Z"/>
    <path class="st2" d="M1428.8,392.2c11-4.7,21.9-13.1,30.8-28.5,8.8-15.1,10.4-28.6,9.3-40.6l5.8,3.4c1.3,10.1.7,24.3-8.9,40.9-9.8,16.7-21.8,24.2-31.2,28.2l-5.8-3.4h0Z"/>
    <path class="st2" d="M1100.6,201.7c-1.2-10.2-.6-24.4,9-41.1,9.6-16.5,21.7-24,31.1-28l5.8,3.4c-10.9,5-21.9,13.1-30.7,28.2-8.9,15.3-10.8,29-9.4,40.9l-5.8-3.4h0Z"/>
    <path class="st2" d="M1473.4,307.2c7.2-9.6,12.4-22.3,12.4-40.1s-5.3-30-12.3-39.8h6.8c6.2,8.2,12.8,20.7,12.7,39.8,0,19.3-6.7,31.8-12.9,40.1h-6.8.1Z"/>
    <path class="st2" d="M1094,306.4c-6.2-8.2-12.7-20.8-12.7-40.1s6.7-31.6,12.9-39.8h6.8c-7,9.8-12.4,22.3-12.4,39.8s5.1,30.5,12.3,40.1h-6.9Z"/>
    <path class="st2" d="M1345.1,79.4c10.2-1.2,24.4-.6,41.1,9,16.5,9.6,24,21.7,28,31.1l-3.4,5.9c-5-10.9-13.1-21.9-28.2-30.7-15.3-8.9-29-10.8-40.9-9.4,0,0,3.4-5.9,3.4-5.9Z"/>
    <path class="st2" d="M1154.6,407.6c4.7,11,13.1,21.9,28.5,30.8,15.1,8.8,28.6,10.4,40.6,9.3l-3.4,5.8c-10.1,1.3-24.3.7-40.9-8.9-16.7-9.8-24.2-21.8-28.2-31.2l3.4-5.8h0Z"/>
    <path class="st2" d="M1430.4,140.6c9.5,4.1,21.4,11.7,31.1,28.4,9.5,16.6,10,30.8,8.7,40.9l-5.9,3.4c1.2-12-.4-25.5-9.1-40.7-8.8-15.4-19.7-23.9-30.7-28.6l5.9-3.4h0Z"/>
    <path class="st2" d="M1101.3,329.5c-1.4,11.9.4,25.5,9.3,40.9,8.7,15.1,19.6,23.3,30.5,28.4l-5.9,3.4c-9.4-4-21.4-11.5-31-28.1-9.5-16.8-10.1-30.9-8.8-41.2l5.9-3.4h0Z"/>
  </g>
  <g id="metre" class="st1">
    <path d="M187.3-.3h98v6.7h-98V-.3h0Z"/>
    <path d="M84.1-.3h98v6.5h-98s0-6.5,0-6.5Z"/>
    <path d="M6.8,327.9l-.2,98H0l.2-98h6.6Z"/>
    <path d="M6.8,109.7l-.2,98H0l.2-98h6.6Z"/>
    <path d="M6.8,218.8l-.2,98H0l.2-98h6.6Z"/>
    <path d="M6.8.6l-.2,98H0L.2.6h6.6Z"/>
    <path d="M6.8,437l-.2,98H0l.2-98h6.6Z"/>
    <path d="M43.9,272.3c-7,0-8,4.2-8,7.2s.4,5.3.8,7.9c.4,2.6.8,5.4.8,8,0,9.9-6.2,13.4-14.2,13.4h-2.1v-5.4h1.7c5.5,0,7.8-3,7.9-8.5,0-2.4-.4-4.6-.7-7.1-.4-2.4-.8-4.8-.8-7.5,0-6.3,2.8-9.6,7.1-10.7v-.2c-4.3-1.2-7-4.3-7-10.6s.4-5,.8-7.4c.3-2.4.7-4.7.7-7,0-5.3-2-8.3-7.7-8.4h-1.8v-5.4h2c8.3,0,14.3,3.9,14.3,12.9s-.4,5.4-.8,8.1c-.4,2.7-.8,5.5-.8,8.2s1,7.3,7.9,7.3v5.2h0Z"/>
    <path d="M15.1,51.8v-4.9h49v5H15.1Z"/>
    <path d="M15,80.2v-4.9h49v5H15Z"/>
    <path d="M14.9,108.6v-4.9h49v5H14.9Z"/>
    <path d="M14.9,136.9v-4.9h49v5s-49-.1-49-.1Z"/>
    <path d="M14.8,165.3v-4.9h49v5s-49-.1-49-.1Z"/>
    <path d="M14.7,193.7v-4.9h49v5s-49-.1-49-.1Z"/>
    <path d="M14.6,222.1v-4.9h49v5s-49-.1-49-.1Z"/>
    <path d="M14.2,321.6v-4.9h49v5s-49-.1-49-.1Z"/>
    <path d="M14.1,350.4v-4.9h49v5s-49-.1-49-.1Z"/>
    <path d="M14.1,379.2v-4.9h49v5s-49-.1-49-.1Z"/>
    <path d="M14,407.9v-4.9h49v5H14Z"/>
    <path d="M13.9,436.7v-4.9h49v5s-49-.1-49-.1Z"/>
    <path d="M13.9,465.5v-4.9h49v5s-49-.1-49-.1Z"/>
    <path d="M13.8,494.3v-4.9h49v5s-49-.1-49-.1Z"/>
    <path d="M16.7,23.4v-4.9h49v5s-49-.1-49-.1Z"/>
    <path d="M14.2,523v-4.9h49v5H14.2Z"/>
    <path d="M80.1,327.9l-.2,98h-6.6l.2-98h6.6Z"/>
    <path d="M80.1,109.7l-.2,98h-6.6l.2-98h6.6Z"/>
    <path d="M80.1,218.8l-.2,98h-6.6l.2-98h6.6Z"/>
    <path d="M80.1.6l-.2,98h-6.6l.2-98s6.6,0,6.6,0Z"/>
    <path d="M80.1,437l-.2,98h-6.6l.2-98h6.6Z"/>
    <path d="M1913.2,328.8l.2,98h6.6l-.2-98h-6.6Z"/>
    <path d="M1913.2,110.6l.2,98h6.6l-.2-98s-6.6,0-6.6,0Z"/>
    <path d="M1913.2,219.7l.2,98h6.6l-.2-98h-6.6Z"/>
    <path d="M1913.2,1.5l.2,98h6.6l-.2-98h-6.6Z"/>
    <path d="M1913.2,437.9l.2,98h6.6l-.2-98h-6.6Z"/>
    <path d="M1876.1,273.2c7,0,8,4.2,8,7.2s-.4,5.3-.8,7.9-.8,5.4-.8,8c0,9.9,6.2,13.4,14.2,13.4h2.1v-5.4h-1.7c-5.5,0-7.8-3-7.9-8.5,0-2.4.4-4.6.7-7.1.4-2.4.8-4.8.8-7.5,0-6.3-2.8-9.6-7.1-10.7v-.2c4.3-1.2,7-4.3,7-10.6s-.4-5-.8-7.4c-.3-2.4-.7-4.7-.7-7,0-5.3,2-8.3,7.7-8.4h1.8v-5.4h-2c-8.3,0-14.3,3.9-14.3,12.9s.4,5.4.8,8.1c.4,2.7.8,5.5.8,8.2s-1,7.3-7.9,7.3v5.2h.1Z"/>
    <path d="M1904.9,52.7v-4.9h-49v5h49Z"/>
    <path d="M1905,81.1v-4.9h-49v5h49Z"/>
    <path d="M1905.1,109.4v-4.9h-49v5h49Z"/>
    <path d="M1905.1,137.8v-4.9h-49v5h49Z"/>
    <path d="M1905.2,166.2v-4.9h-49v5h49Z"/>
    <path d="M1905.3,194.6v-4.9h-49v5h49Z"/>
    <path d="M1905.4,222.9v-4.9h-49v5h49Z"/>
    <path d="M1905.8,322.5v-4.9h-49v5h49Z"/>
    <path d="M1905.9,351.3v-4.9h-49v5h49Z"/>
    <path d="M1905.9,380v-4.9h-49v5h49Z"/>
    <path d="M1906,408.8v-4.9h-49v5h49Z"/>
    <path d="M1906.1,437.6v-4.9h-49v5h49Z"/>
    <path d="M1906.1,466.4v-4.9h-49v5h49Z"/>
    <path d="M1906.2,495.1v-4.9h-49v5h49Z"/>
    <path d="M1903.3,24.3v-4.9h-49v5h49Z"/>
    <path d="M1905.8,523.9v-4.9h-49v5h49Z"/>
    <path d="M1839.9,328.8l.2,98h6.6l-.2-98h-6.6Z"/>
    <path d="M1839.9,110.6l.2,98h6.6l-.2-98s-6.6,0-6.6,0Z"/>
    <path d="M1839.9,219.7l.2,98h6.6l-.2-98h-6.6Z"/>
    <path d="M1839.9,1.5l.2,98h6.6l-.2-98h-6.6Z"/>
    <path d="M1839.9,437.9l.2,98h6.6l-.2-98h-6.6Z"/>
    <path d="M393.8-.3h98v6.7h-98s0-6.7,0-6.7Z"/>
    <path d="M290.6-.3h98v6.5h-98s0-6.5,0-6.5Z"/>
    <path d="M600.3-.3h98v6.7h-98s0-6.7,0-6.7Z"/>
    <path d="M497.1-.3h98v6.5h-98V-.3h0Z"/>
    <path d="M806.8-.3h98v6.7h-98s0-6.7,0-6.7Z"/>
    <path d="M703.6-.3h98v6.5h-98s0-6.5,0-6.5Z"/>
    <path d="M1013.3-.3h98v6.7h-98V-.3h0Z"/>
    <path d="M910.1-.3h98v6.5h-98s0-6.5,0-6.5Z"/>
    <path d="M1219.8-.3h98v6.7h-98s0-6.7,0-6.7Z"/>
    <path d="M1116.6-.3h98v6.5h-98s0-6.5,0-6.5Z"/>
    <path d="M1426.3-.3h98v6.7h-98s0-6.7,0-6.7Z"/>
    <path d="M1323.1-.3h98v6.5h-98s0-6.5,0-6.5Z"/>
    <path d="M1632.8-.3h98v6.7h-98s0-6.7,0-6.7Z"/>
    <path d="M1529.6-.3h98v6.5h-98s0-6.5,0-6.5Z"/>
    <path d="M1736.1-.3h98v6.7h-98s0-6.7,0-6.7Z"/>
    <path d="M188.3,528.5h98v6.7h-98v-6.7h0Z"/>
    <path d="M85,528.5h98v6.5h-98v-6.5Z"/>
    <path d="M394.8,528.5h98v6.7h-98v-6.7Z"/>
    <path d="M291.5,528.5h98v6.5h-98v-6.5Z"/>
    <path d="M601.3,528.5h98v6.7h-98v-6.7Z"/>
    <path d="M498,528.5h98v6.5h-98v-6.5Z"/>
    <path d="M807.8,528.5h98v6.7h-98v-6.7Z"/>
    <path d="M704.5,528.5h98v6.5h-98v-6.5Z"/>
    <path d="M1014.3,528.5h98v6.7h-98v-6.7h0Z"/>
    <path d="M911,528.5h98v6.5h-98v-6.5Z"/>
    <path d="M1117.5,528.5h98v6.5h-98v-6.5Z"/>
    <path d="M1633.8,528.5h98v6.7h-98v-6.7Z"/>
    <path d="M1530.5,528.5h98v6.5h-98v-6.5Z"/>
    <path d="M1737,528.5h98v6.7h-98v-6.7Z"/>
    <path d="M1220.8,528.5h98v6.7h-98v-6.7Z"/>
    <path d="M1427.3,528.5h98v6.7h-98v-6.7Z"/>
    <path d="M1324,528.5h98v6.5h-98v-6.5Z"/>
  </g>
  <g id="rectangle" class="st1">
    <path d="M547.1,38.7h4.9v49h-5v-49h0Z"/>
    <path d="M645,38.8h4.9v49h-5v-49h0Z"/>
    <path d="M549.6,18.4l98,.2v6.6l-98-.2v-6.6Z"/>
    <path d="M652,18.6l98,.2v6.6l-98-.2v-6.6Z"/>
    <path d="M447.9,18.8l98,.2v6.6l-98-.2v-6.6h0Z"/>
    <path d="M547.7,100.3l98,.2v6.6l-98-.2v-6.6Z"/>
    <path d="M650.1,100.4l98,.2v6.6l-98-.2v-6.6Z"/>
    <path d="M445.9,100.6l98,.2v6.6l-98-.2v-6.6h0Z"/>
    <path d="M763,9.2l-.2,98h-6.6l.2-98s6.6,0,6.6,0Z"/>
    <path d="M498.2,173.7l98,.2v6.6l-98-.2v-6.6Z"/>
    <path d="M600.3,173.9l98,.2v6.6l-98-.2v-6.6Z"/>
    <path d="M701.8,173.9c11.9-1.7,24.6-7,37.1-19.5,12.4-12.3,17.5-25,19.5-36.8l4.8,4.8c-1.4,10.1-5.6,23.7-19.1,37.2-13.8,13.6-27.3,17.8-37.5,19.2l-4.8-4.8h0Z"/>
    <path d="M789.7,9.2l-.2,98h-6.6l.2-98s6.6,0,6.6,0Z"/>
    <path d="M726.2,203.5c11.9-1.7,24.6-7,37.1-19.5,12.4-12.3,17.5-25,19.5-36.8l4.8,4.8c-1.4,10.1-5.6,23.7-19.1,37.2-13.8,13.6-27.3,17.8-37.5,19.2l-4.8-4.8h0Z"/>
    <path d="M783.2,117.6h6.4v24.2h-6.4v-24.2Z"/>
    <path d="M439,9.5l-.2,98h-6.6l.2-98h6.6Z"/>
    <path d="M490.3,177.7c-10.2-1.5-23.7-5.7-37.4-19.4-13.5-13.5-17.6-27.1-19-37.3l4.8-4.8c2,11.9,7,24.6,19.3,36.9,12.5,12.6,25.2,17.9,37,19.7l-4.8,4.8h.1Z"/>
    <path d="M412.5,9.5l-.2,98h-6.6l.2-98h6.6Z"/>
    <path d="M463.6,209.8c-10.2-1.5-23.7-5.7-37.4-19.4-13.5-13.5-17.6-27.1-19-37.3l4.8-4.8c2,11.9,7,24.6,19.3,36.9,12.5,12.6,25.2,17.9,37,19.7l-4.8,4.8h.1Z"/>
    <path d="M411.8,140.5h-6.4v-24.2h6.4v24.2Z"/>
    <path d="M521,206.1v4.9h-49v-5h49Z"/>
    <path d="M724.9,206.1v4.9h-49v-5h49Z"/>
    <path d="M571.9,206.1v4.9h-49v-5h49Z"/>
    <path d="M622.9,206.1v4.9h-49v-5h49Z"/>
    <path d="M673.9,206.1v4.9h-49v-5h49Z"/>
  </g>
</svg>