<?xml version="1.0" encoding="UTF-8"?>
<svg id="Layer_3" data-name="Layer 3" xmlns="http://www.w3.org/2000/svg" viewBox="0 0 500 500">
  <path d="M459.08,259.18v128.32H34.28c29.42-45.96,80.53-83.4,153.32-112.3l44.73-17.77c52.47-20.83,78.71-42.58,78.71-65.23,0-25.13-24.02-37.7-72.07-37.7-50.91,0-76.37,17.45-76.37,52.34,0,13.28,7.03,26.24,21.09,38.87-11.85,3.12-23.5,4.69-34.96,4.69-31.77,0-57.32-4.98-76.66-14.94s-29-23.14-29-39.55c0-23.57,20.34-43.36,61.04-59.38,40.69-16.02,90.98-24.02,150.88-24.02s109.67,8.01,150.1,24.02,60.64,35.87,60.64,59.57c0,14.33-7.94,26.37-23.83,36.13-15.89,9.77-47.59,22.14-95.12,37.11l-54.69,17.19c-55.47,17.58-100.85,33.66-136.13,48.24h216.21l86.91-75.59Z"/>
</svg>