<?xml version="1.0" encoding="UTF-8"?>
<svg id="Layer_1" data-name="Layer 1" xmlns="http://www.w3.org/2000/svg" viewBox="0 0 453.32 556.27">
  <defs>
    <style>
      .cls-1 {
        stroke: #6f7684;
        stroke-width: 11.13px;
      }

      .cls-1, .cls-2 {
        fill: #446eb1;
      }

      .cls-1, .cls-3, .cls-4, .cls-5, .cls-6, .cls-7 {
        stroke-miterlimit: 10;
      }

      .cls-8, .cls-4, .cls-5 {
        fill: #efede4;
      }

      .cls-3 {
        fill: #aecfff;
      }

      .cls-3, .cls-4, .cls-5, .cls-6 {
        stroke: #000;
      }

      .cls-3, .cls-4, .cls-6 {
        stroke-width: 1.98px;
      }

      .cls-5 {
        stroke-width: 1.42px;
      }

      .cls-6, .cls-7 {
        fill: none;
      }

      .cls-7 {
        stroke: #fff;
        stroke-width: 5.67px;
      }
    </style>
  </defs>
  <rect class="cls-4" x="6.94" y="5.73" width="441.38" height="545.72"/>
  <rect class="cls-3" x="25.68" y="27.76" width="403.89" height="501.65"/>
  <g>
    <path class="cls-8" d="m379.8,352.17c-84.62-44.48-76.89,25.85,17.38,177.24h-.84c-100.35-146.51-165.65-174.77-165.65-68.91,0-105.86-65.29-77.6-165.65,68.91h-.83c94.27-151.39,102-221.72,17.38-177.24,71.69-37.69,48.08-82.27-55.91-119.21v-8.53c7.8,1.12,15.27,2.09,22.41,2.9,8.53.96,16.58,1.71,24.14,2.23,4.25.29,8.34.51,12.27.66,5.79.22,11.25.3,16.36.22,5.78-.09,11.11-.37,16-.83,6.44-.62,12.11-1.56,16.98-2.84,2.79-.72,5.31-1.55,7.57-2.49,19.38-8.05,19.37-23.88-2.6-47.1,6.04,6.3,11.84,11.03,17.4,14.22,5.35,3.08,10.46,4.74,15.33,5.04,5.9.36,11.44-1.29,16.57-4.85,2.67-1.86,5.23-4.24,7.67-7.12,6.67-7.87,12.51-19.52,17.39-34.76,3.45-10.75,6.43-23.27,8.91-37.51,4.1-23.58,6.81-51.83,7.97-84.44h1.28c.86,24.18,2.58,45.97,5.08,65.23.98,7.6,2.09,14.8,3.32,21.6.41,2.31.84,4.58,1.28,6.8,3.52,17.52,7.87,32.13,12.97,43.66,5.08,11.47,10.9,19.89,17.4,25.11,10.82,8.7,23.5,8.54,37.69-1.21,4.45-3.07,9.05-7.08,13.78-12.06-6.42,6.75-10.99,12.88-13.78,18.37-4.56,8.99-4.37,16.28.33,21.86,6.18,7.36,20.19,11.71,41.39,12.97,8,.47,17.03.51,27.05.09,5.5-.22,11.3-.59,17.4-1.08,10.57-.86,22.02-2.13,34.33-3.81v9.89c-98.76,36.5-120.02,80.06-49.77,116.99Z"/>
    <path class="cls-6" d="m379.8,352.17c-84.62-44.48-76.89,25.85,17.38,177.24h-.84c-100.35-146.51-165.65-174.77-165.65-68.91,0-105.86-65.29-77.6-165.65,68.91h-.83c94.27-151.39,102-221.72,17.38-177.24,71.69-37.69,48.08-82.27-55.91-119.21v-8.53c7.8,1.12,15.27,2.09,22.41,2.9,8.53.96,16.58,1.71,24.14,2.23,4.25.29,8.34.51,12.27.66,5.79.22,11.25.3,16.36.22,5.78-.09,11.11-.37,16-.83,6.44-.62,12.11-1.56,16.98-2.84,2.79-.72,5.31-1.55,7.57-2.49,19.38-8.05,19.37-23.88-2.6-47.1,6.04,6.3,11.84,11.03,17.4,14.22,5.35,3.08,10.46,4.74,15.33,5.04,5.9.36,11.44-1.29,16.57-4.85,2.67-1.86,5.23-4.24,7.67-7.12,6.67-7.87,12.51-19.52,17.39-34.76,3.45-10.75,6.43-23.27,8.91-37.51,4.1-23.58,6.81-51.83,7.97-84.44h1.28c.86,24.18,2.58,45.97,5.08,65.23.98,7.6,2.09,14.8,3.32,21.6.41,2.31.84,4.58,1.28,6.8,3.52,17.52,7.87,32.13,12.97,43.66,5.08,11.47,10.9,19.89,17.4,25.11,10.82,8.7,23.5,8.54,37.69-1.21,4.45-3.07,9.05-7.08,13.78-12.06-6.42,6.75-10.99,12.88-13.78,18.37-4.56,8.99-4.37,16.28.33,21.86,6.18,7.36,20.19,11.71,41.39,12.97,8,.47,17.03.51,27.05.09,5.5-.22,11.3-.59,17.4-1.08,10.57-.86,22.02-2.13,34.33-3.81v9.89c-98.76,36.5-120.02,80.06-49.77,116.99Z"/>
  </g>
  <polygon class="cls-2" points="24.68 183.89 227.63 109.69 430.57 183.89 430.57 26.73 24.68 26.73 24.68 183.89"/>
  <g>
    <polygon class="cls-5" points="226.78 39.81 237.08 60.67 260.11 64.02 243.45 80.26 247.38 103.2 226.78 92.37 206.18 103.2 210.12 80.26 193.45 64.02 216.48 60.67 226.78 39.81"/>
    <polygon class="cls-5" points="279.02 69.3 281.53 87.8 298.2 96.21 281.38 104.32 278.53 122.77 265.62 109.28 247.19 112.27 256.03 95.83 247.5 79.22 265.87 82.55 279.02 69.3"/>
    <polygon class="cls-5" points="174.31 69.3 171.79 87.8 155.13 96.21 171.94 104.32 174.79 122.77 187.7 109.28 206.13 112.27 197.29 95.83 205.83 79.22 187.46 82.55 174.31 69.3"/>
  </g>
  <g>
    <g>
      <path class="cls-7" d="m55.94,87.88v123.11c0,6.68-2.8,7.77-7.55,7.77h-6.04v14.66h11.43c6.1,0,10.56-1.09,13.7-3.37,2.09-1.51,3.6-3.54,4.63-6.11,1.51-3.24,1.94-7.12,1.94-18.11v-117.94h-18.11Z"/>
      <path d="m55.94,87.88v123.11c0,6.68-2.8,7.77-7.55,7.77h-6.04v14.66h11.43c6.1,0,10.56-1.09,13.7-3.37,2.09-1.51,3.6-3.54,4.63-6.11,1.51-3.24,1.94-7.12,1.94-18.11v-117.94h-18.11Z"/>
    </g>
    <g>
      <path class="cls-7" d="m131.62,227.14l-6.2-83.48-4.14-55.79h-30.41l-5.22,70.3-5.39,72.56-.17,2.26v.43h17.03l.17-2.46,2.63-37.64h11.65l2.37,36.78.22,3.32h17.89v-.43l-.44-5.85Zm-30.83-47.84l1.98-27.37.83-11.44c.21-3.02,1.07-21.78,1.51-32.99h1.29c.43,11.21,1.51,29.97,1.73,32.99l.61,9.25,1.97,29.55h-9.92Z"/>
      <path d="m131.62,227.14l-6.2-83.48-4.14-55.79h-30.41l-5.22,70.3-5.39,72.56-.17,2.26v.43h17.03l.17-2.46,2.63-37.64h11.65l2.37,36.78.22,3.32h17.89v-.43l-.44-5.85Zm-30.83-47.84l1.98-27.37.83-11.44c.21-3.02,1.07-21.78,1.51-32.99h1.29c.43,11.21,1.51,29.97,1.73,32.99l.61,9.25,1.97,29.55h-9.92Z"/>
    </g>
    <g>
      <path class="cls-7" d="m162.46,87.02c-14.44,0-25.66,5.82-25.66,22.85v102.42c0,5.02.97,9.06,2.71,12.26,4.17,7.7,12.76,10.6,22.95,10.6,14.45,0,25.66-5.82,25.66-22.86v-37.3h-17.25v37.52c0,7.55-3.66,9.06-7.97,9.06s-7.98-1.51-7.98-9.06v-103.28c0-7.11,3.67-8.62,7.55-8.62,4.1,0,7.77,1.51,7.77,8.62v32.78h17.89v-32.13c0-17.03-11.21-22.85-25.66-22.85Z"/>
      <path d="m162.46,87.02c-14.44,0-25.66,5.82-25.66,22.85v102.42c0,5.02.97,9.06,2.71,12.26,4.17,7.7,12.76,10.6,22.95,10.6,14.45,0,25.66-5.82,25.66-22.86v-37.3h-17.25v37.52c0,7.55-3.66,9.06-7.97,9.06s-7.98-1.51-7.98-9.06v-103.28c0-7.11,3.67-8.62,7.55-8.62,4.1,0,7.77,1.51,7.77,8.62v32.78h17.89v-32.13c0-17.03-11.21-22.85-25.66-22.85Z"/>
    </g>
    <g>
      <path class="cls-7" d="m230.81,155.79l12.38-38.35,1.9-5.9,7.51-23.23v-.43h-18.11l-5.53,18-14.75,47.98v-65.98h-18.1v145.54h18.1v-72.23l20.06,72.23h18.76v-.43l-22.21-77.2Z"/>
      <path d="m230.81,155.79l12.38-38.35,1.9-5.9,7.51-23.23v-.43h-18.11l-5.53,18-14.75,47.98v-65.98h-18.1v145.54h18.1v-72.23l20.06,72.23h18.76v-.43l-22.21-77.2Z"/>
    </g>
    <g>
      <path class="cls-7" d="m303.68,97.14c-4.09-6.9-12.28-9.26-22.2-9.26h-24.8v145.54h18.11v-55.41h6.68c9.92,0,18.11-2.37,22.2-9.06,2.37-3.66,3.66-8.41,3.66-17.47v-37.09c0-9.06-1.29-13.79-3.66-17.25Zm-14.44,54.12c0,6.04-.44,8.63-1.08,10.14-1.08,2.59-3.45,3.45-6.68,3.45h-6.68v-63.6h6.68c3.24,0,5.6.86,6.68,3.45.65,1.51,1.08,3.88,1.08,9.92v36.65Z"/>
      <path d="m303.68,97.14c-4.09-6.9-12.28-9.26-22.2-9.26h-24.8v145.54h18.11v-55.41h6.68c9.92,0,18.11-2.37,22.2-9.06,2.37-3.66,3.66-8.41,3.66-17.47v-37.09c0-9.06-1.29-13.79-3.66-17.25Zm-14.44,54.12c0,6.04-.44,8.63-1.08,10.14-1.08,2.59-3.45,3.45-6.68,3.45h-6.68v-63.6h6.68c3.24,0,5.6.86,6.68,3.45.65,1.51,1.08,3.88,1.08,9.92v36.65Z"/>
    </g>
    <g>
      <path class="cls-7" d="m339.69,87.02c-14.45,0-25.66,5.82-25.66,22.85v102.42c0,1.72.11,3.32.34,4.81,1.95,13.35,12.33,18.05,25.32,18.05,6.98,0,13.19-1.32,17.77-4.55,5.04-3.54,8.11-9.39,8.11-18.31v-102.42c0-17.03-11.21-22.85-25.88-22.85Zm7.77,125.93c0,7.11-3.66,8.62-7.77,8.62-3.88,0-7.55-1.51-7.55-8.62v-103.72c0-7.11,3.66-8.62,7.55-8.62,4.1,0,7.77,1.51,7.77,8.62v103.72Z"/>
      <path d="m339.69,87.02c-14.45,0-25.66,5.82-25.66,22.85v102.42c0,1.72.11,3.32.34,4.81,1.95,13.35,12.33,18.05,25.32,18.05,6.98,0,13.19-1.32,17.77-4.55,5.04-3.54,8.11-9.39,8.11-18.31v-102.42c0-17.03-11.21-22.85-25.88-22.85Zm7.77,125.93c0,7.11-3.66,8.62-7.77,8.62-3.88,0-7.55-1.51-7.55-8.62v-103.72c0-7.11,3.66-8.62,7.55-8.62,4.1,0,7.77,1.51,7.77,8.62v103.72Z"/>
    </g>
    <g>
      <path class="cls-7" d="m369.66,87.88v13.79h15.96v131.74h18.11V101.67h16.17v-13.79h-50.24Z"/>
      <path d="m369.66,87.88v13.79h15.96v131.74h18.11V101.67h16.17v-13.79h-50.24Z"/>
    </g>
  </g>
  <rect class="cls-1" x="46.56" y="285.41" width="361.46" height="219.87"/>
</svg>