<?xml version="1.0" encoding="UTF-8"?>
<svg id="Layer_1" data-name="Layer 1" xmlns="http://www.w3.org/2000/svg" viewBox="0 0 453.32 556.27">
  <defs>
    <style>
      .cls-1 {
        stroke: #9ca6b7;
        stroke-width: 11.13px;
      }

      .cls-1, .cls-2 {
        fill: #446eb1;
      }

      .cls-1, .cls-3, .cls-4, .cls-5 {
        stroke-miterlimit: 10;
      }

      .cls-6, .cls-3 {
        fill: #aecfff;
      }

      .cls-3, .cls-4 {
        stroke-width: 1.42px;
      }

      .cls-3, .cls-4, .cls-5 {
        stroke: #000;
      }

      .cls-4 {
        fill: #efede4;
      }

      .cls-5 {
        fill: #9ca6b7;
        stroke-width: 1.44px;
      }
    </style>
  </defs>
  <rect class="cls-4" x="6.94" y="5.73" width="441.38" height="545.72"/>
  <rect class="cls-3" x="25.68" y="27.76" width="403.89" height="501.65"/>
  <polygon class="cls-2" points="24.68 183.89 227.63 109.69 430.57 183.89 430.57 26.73 24.68 26.73 24.68 183.89"/>
  <g>
    <polygon class="cls-4" points="226.78 39.81 237.08 60.67 260.11 64.02 243.45 80.26 247.38 103.2 226.78 92.37 206.18 103.2 210.12 80.26 193.45 64.02 216.48 60.67 226.78 39.81"/>
    <polygon class="cls-4" points="279.02 69.3 281.53 87.8 298.2 96.21 281.38 104.32 278.53 122.77 265.62 109.28 247.19 112.27 256.03 95.83 247.5 79.22 265.87 82.55 279.02 69.3"/>
    <polygon class="cls-4" points="174.31 69.3 171.79 87.8 155.13 96.21 171.94 104.32 174.79 122.77 187.7 109.28 206.13 112.27 197.29 95.83 205.83 79.22 187.46 82.55 174.31 69.3"/>
  </g>
  <rect class="cls-1" x="46.56" y="285.41" width="361.46" height="219.87"/>
  <g>
    <path class="cls-5" d="m41.94,268.14v-14.35h5.91c4.64,0,7.39-1.06,7.39-7.6v-120.48h17.72v115.42c0,10.76-.42,14.56-1.9,17.72-2.53,6.33-8.02,9.28-17.93,9.28h-11.18Z"/>
    <path class="cls-5" d="m89.41,125.72h29.75l10.55,142v.42h-17.51l-2.53-39.25h-11.39l-2.74,39.25h-16.67v-.42l10.55-142Zm9.71,89.46h9.71l-2.53-37.98c-.21-2.95-1.27-21.31-1.69-32.28h-1.27c-.42,10.97-1.27,29.33-1.48,32.28l-2.74,37.98Z"/>
    <path class="cls-5" d="m134.35,247.46v-100.22c0-16.67,10.97-22.37,25.11-22.37s25.11,5.7,25.11,22.37v31.44h-17.51v-32.07c0-6.96-3.59-8.44-7.6-8.44-3.8,0-7.38,1.48-7.38,8.44v101.07c0,7.38,3.59,8.86,7.81,8.86s7.81-1.48,7.81-8.86v-36.71h16.88v36.5c0,16.67-10.97,22.37-25.11,22.37s-25.11-5.7-25.11-22.37Z"/>
    <path class="cls-5" d="m247.66,126.14l-21.31,66.04,21.73,75.54v.42h-18.36l-19.62-70.68v70.68h-17.72V125.72h17.72v64.57l19.83-64.57h17.72v.42Z"/>
    <path class="cls-5" d="m269.39,268.14h-17.72V125.72h24.26c9.71,0,17.72,2.32,21.73,9.07,2.32,3.38,3.59,8.02,3.59,16.88v36.29c0,8.86-1.27,13.5-3.59,17.09-4.01,6.54-12.03,8.86-21.73,8.86h-6.54v54.23Zm0-129.34v62.24h6.54c3.17,0,5.49-.84,6.54-3.38.63-1.48,1.05-4.01,1.05-9.92v-35.87c0-5.91-.42-8.23-1.05-9.71-1.06-2.53-3.38-3.38-6.54-3.38h-6.54Z"/>
    <path class="cls-5" d="m307.79,247.46v-100.22c0-16.67,10.97-22.37,25.11-22.37s25.32,5.7,25.32,22.37v100.22c0,16.67-10.97,22.37-25.32,22.37s-25.11-5.7-25.11-22.37Zm32.71.63v-101.49c0-6.96-3.59-8.44-7.6-8.44-3.8,0-7.38,1.48-7.38,8.44v101.49c0,6.96,3.59,8.44,7.38,8.44,4.01,0,7.6-1.48,7.6-8.44Z"/>
    <path class="cls-5" d="m362.22,125.72h49.16v13.5h-15.82v128.92h-17.72v-128.92h-15.61v-13.5Z"/>
  </g>
  <g>
    <circle class="cls-6" cx="116.68" cy="395.34" r="48.24"/>
    <circle class="cls-6" cx="227.29" cy="395.34" r="48.24"/>
    <circle class="cls-6" cx="337.9" cy="395.34" r="48.24"/>
  </g>
  <polygon class="cls-4" points="116.68 360.87 126.97 381.74 150 385.09 133.34 401.33 137.27 424.26 116.68 413.44 96.08 424.26 100.01 401.33 83.35 385.09 106.38 381.74 116.68 360.87"/>
  <polygon class="cls-4" points="227.63 360.87 237.93 381.74 260.95 385.09 244.29 401.33 248.22 424.26 227.63 413.44 207.03 424.26 210.96 401.33 194.3 385.09 217.33 381.74 227.63 360.87"/>
</svg>