<?xml version="1.0" encoding="UTF-8"?>
<svg id="uuid-b1a58ab2-959c-412b-8d3d-18a10fb4fb89" xmlns="http://www.w3.org/2000/svg" version="1.1" viewBox="0 0 106.8 295.5">
  <!-- Generator: Adobe Illustrator 30.0.0, SVG Export Plug-In . SVG Version: 2.1.1 Build 123)  -->
  <defs>
    <style>
      .st0 {
        fill: #fff;
      }
    </style>
  </defs>
  <g id="uuid-b4f604a2-1fbc-44b2-86ae-aa777718c5e1">
    <path class="st0" d="M87.8,0c3.2,8,1.2,17-1,25,7.6,1.2,18.7-3.9,19.1,7.9,0,1.9-.6,3.5-.6,5.4-.1,14.1,1.3,28.6.6,42.6-.6,12-3.8,23.8-3.3,36,.8,20.4,3.4,39.1,2.8,60-.2,8.3-1.4,16.7-1.7,25-.4,10.6-1,21.6-.6,32.2.7,16.7,5.1,37.2,3.3,53.4-1,8.8-12.9,5.9-19.4,6.2-6.7.4-13.4,1.2-20.1,1.7-6.4-.2-2.6-9.6-2.5-13.3.2-9.3-1.5-18.9-1.1-28.4.5-8.7,2.4-17.4,2.8-26.1.8-19.9-3.8-39.6-2.8-60,.5-9.5,3.1-19.3,3.3-28.9.4-14.8-4.9-29.1-3-43.9l-1.7-2.2-32.2,3.8-27-3c-4.5-1.9-2.2-5.8-2.1-9.3.1-4.5-.6-10.6,0-14.8,1-7.7,12.9-4.3,17.7-4.6,4.6-.3,10.5-2,15.4-2.6,12.8-1.8,19.6.6,27-12.2,6.2-10.8,5.7-27.2,23.3-24.9,1-6.6,2.8-12.5,2.1-19.3-.1-1.4-2.1-4.5-.5-5.5l2.2-.2h0Z"/>
  </g>
</svg>