<?xml version="1.0" encoding="UTF-8"?>
<svg id="Layer_1" xmlns="http://www.w3.org/2000/svg" version="1.1" viewBox="0 0 1640 2360">
  <!-- Generator: Adobe Illustrator 30.0.0, SVG Export Plug-In . SVG Version: 2.1.1 Build 123)  -->
  <defs>
    <style>
      .st0 {
        fill: #fff;
      }
    </style>
  </defs>
  <path class="st0" d="M36,601.4c73.8,68.4,200.7,123.1,296.2,180.4,33.5,15.9,65.7,36.9,100.8,48.6-7.9-12.7-11.7-27.8-6.7-42.6,56.5-41.4,140.5-17.8,207-21.1,123.4,14.6,253.2-29.8,369.7,25.1,224,101.6,464.4,233.9,533.1,481.2,118-6.4,136.8,23.1,3.4,13.4,6.9,50.1-20.1,16.1-18.6-13.9-56.5-232.9-451.7-505.6-701.6-491.9-76.8,24.8-243.9-46.3-250,41.2-10.2,9.2-21.6,9.6-34.9,9.2-42.4,4.2-53.3-50.8-69.9-46.3-84.5,43.4,92.2,103.8,131.9,109.5,140.5,37.9,292.7,30.8,404.7,137.5,37.1,26.2,86.8,71.6,59.3,122.7-112.5,62-261.4,12.2-386.4,26.2-74.6-9.7-149.9,18.3-211.2-4.7,8.6-7.9,22.6-3,33.5-5-6.5-16.6-14.9-39.2-26.8-48.6-4.5-18.1-37.7-14.8-30.2-35.2,51,23.3,40.9-34,40.2-68.7-3.4-60.4,5.2-90.4-38.6-132.4-33.5-26.3-39.7,85.7-60.4,87.2-9.2,8.2-21.3,11.6-33.5,10.1-21.1,39.4-45.8,80-49,125.6,7,207.6,240.4,281.8,414.4,300.3,9.2,38.4-176,6.9-210.9,13.7-94.1-22.5-157.6,82.7-97.6,152.2,104.4,44.9,221.5,54.2,329.9,57.5,19.3.2,38.1-3.2,57.3-2.2,7.2,14.3-11.1,15.4-21.1,15.8-98.9,6.9-215.3-18.3-298.1,51-68.9,57.7,9.2,130.6,79.5,131.1,61.4,9.9,122.1-11.6,181.1-18.4-10.7,52-153.6,48.1-197.8,90.5-79,69.9,76.6,135.3,140,118,107.6-61.2,219.1-90.2,344.9-78.5,141.5-3,282.3-28.7,423.8-11.1,64.9,7.7,133.1,16.4,196.2,31.9-55.7,26.3-178-28.2-257-22.3-90.4-7.7-180.4,8.4-270.6,12.1-75.9,5.5-152.2,2.7-228.2,7.7-102.6-1.8-174.5,103.4-279.1,72.3-183.4-56.8-107.8-164.6,42.4-190.6-240.1,49.6-306-170.5-60-206.5-66.2-14.3-150.2-4.2-200.8-56.3-34.2-47.9-25.3-122.4,24.1-156.4,67.6-28,145.2-4.5,216.6-11.4-283.8-50.6-446.5-241.3-255.3-505.3,4.7-24.1,44.1-34.9,7.5-45.8-47.3-22.3-93.2-47.1-139.8-70.7-93-51-161.6-79-239.6-130.9l36-54.8ZM28.5,629.6c-5.9,3.5-1.3,13.1-7.7,13.6-2.8.7-5.1,2.7-6.9,6.2,50.5,29.5,102.3,56.3,153.9,83.7,95.1,45.3,179.1,101.9,278.6,136,9.7-30-153.4-79.6-185.4-108.8-79.8-36.5-151.2-102.9-232.4-130.6h-.2ZM488.4,780.1c3.2,39.4,86.8,59.2,73.8,3.4-15.3-12.7-51.6-2.3-73.8-3.4ZM461.5,865.6c24.3,58.5,36.9,120,30.7,196.2,5.2,19.6-12.6,37.6-10.6,51.3,16.6,14.4,18.4,47.3,33.9,55.8,122.2-25.7,794.2,86.3,435.2-156.1-56.7-49.3-127.8-66.1-200.5-73.3-99.2-8.7-198.7-48.3-288.7-73.9h0ZM401.2,885.7c-19.4,25.5-33,57.3-46.9,85.5,29-6.2,50.6-63.2,46.9-85.5Z"/>
  <path class="st0" d="M1130.5,1715.6c1.2,5.4,1.2,9.3,0,11.7-20.6,5.9-42.9,7.7-64.2,10.6-1.8.2-3.7.5-5.7.8-31.4,4.2-62.7,7.7-94.1,10.9-2,.2-4,.3-6,.7-13.2,1.3-26.5,2.7-39.6,3.9-1.8.2-3.6.4-5.4.5-22.3,2-44.3,3.4-66.6,3.2h-4c-55.9-.2-90.7-5.1-104.4-14.8-1.5-1.6-2.5-4.2-3-7.9.3-1.5.5-3,.8-4.5,4.9-1.3,7.5-2,12.2,0,1.3.8,2.5,1.5,3.9,2.3,51.3,27.3,141.8,9.2,197.2,3.4,4.7-.5,9.4-1,14.1-1.5,46.6-4.7,92.9-11.1,139.3-18.1,1.3-.2,2.5-.3,3.9-.5,3-.5,6.2-1,9.2-1.5,4.7-.7,8.2-.2,12.7,1l-.3-.2Z"/>
  <path class="st0" d="M795.2,1323c59.7,18.4,117.2,31.4,179.4,37.6,1.7.2,3.4.3,5,.5,3.2.3,6.2.7,9.4,1,9.4,1,18.4,2.7,27.5,4.9v10.1c-1.1,1.1-3.8,1.7-8,1.8-9.4,0-18.8-1-28.2-2.2-1.9-.2-3.7-.4-5.5-.7-3.9-.5-7.9-.8-11.7-1.3-5.9-.7-11.7-1.3-17.6-1.8-35.4-3.9-69.9-10.4-104.3-20-1.2-.3-2.3-.7-3.5-1-24-6.7-47.9-13.7-71.1-23-18.3-6.9-35.9-7.2-55.3-7.4-.7-2.7-1.2-5.5-1.7-8.4,18.1-18.1,65.6,3.5,85.5,9.7l.2.2Z"/>
  <path class="st0" d="M717.4,1520.5h20.8c26.2,0,51.3,3,77.1,7.4,45.9,7.7,93.2,8.6,139-.2,7.5-1.3,14.4-1.7,22-1.5.7,2.7,1.2,5.5,1.7,8.4-7,7-20.6,6.9-30.3,8.6-1.3.2-2.7.5-4,.7-52.5,8.7-104.8,4.4-156.9-5.2-11.9-1.8-23.6-2.7-35.7-3h-4.4c-4.5,0-9.1-.2-13.6-.3-3,0-6.2,0-9.2-.2-7.5-.2-14.9-.3-22.5-.5-1.5-4.9-1.5-8.7,0-11.4,5.2-3,10.4-2.8,16.3-2.7h-.2Z"/>
  <path class="st0" d="M421.3,1197.6c.4,3.6.4,7.5,0,11.7-3.4,3.4-6,5.5-9.9,8.2-2,1.5-4,2.9-6,4.4-1,.7-2,1.3-3,2.2-9.2,6.9-16.8,15.4-23.3,24.8-2.7,3.8-5.8,6.3-9.4,7.5h-3.5c-2.2-3.4-3.3-6.4-3.2-9.1,4.2-12.7,17.8-26.2,28.3-34.5h3.4v-3.4c8.2-8.2,15.1-13.4,26.8-11.7l-.2-.2Z"/>
  <path class="st0" d="M919.2,783.5h10.1c2.8,8.6,0,14.8-2.8,22.8-.5,1.3-1,2.7-1.3,4-1,2.7-1.8,5.4-2.8,8-1,3-2.2,6-3.2,9.1-3.5,10.4-8,20-13.2,29.7h-10.1c-.8-10.6,2-17.9,6.2-27.7,5.2-12.6,9.9-25.1,14.1-38.1,1-3.1,2.1-5.8,3.2-8v.2Z"/>
  <path class="st0" d="M421.3,1472.5l10.1,1.7c.5,13.2-.3,26.5-1.5,39.7-.1,1.7-.2,3.3-.3,4.9-.8,9.9-2.5,19.4-4.9,29.2-2,.7-4.2,1.2-6.7,1.7-1.7-1.2-3.4-2.2-5-3.4.2-2,.5-4,.7-6.2,1.8-16.8,3.2-33.4,3.7-50.1v-7.5c.5-3.9,2-6.7,3.9-10.1l.2.2Z"/>
  <path class="st0" d="M426.3,1239.5c2.9.2,5.7.8,8.4,1.7,7.2,14.3,3.4,42.4-1.3,57.2-1.7,4.5-3.4,8.9-5.4,13.2h-11.7c.7-8,1.5-15.1,4.2-22.8,3-9.6,2.9-18.4,2.5-28.3,0-3.2-.2-6.5-.3-9.7v-4.4c.2-2.3,1.5-4.6,3.7-6.9h0Z"/>
  <path class="st0" d="M889.1,793.5h10.1c3.4,12.4-3.7,22.8-9.6,33.5-1.7,2.7-3.2,5.5-4.9,8.2-.8,1.5-1.6,2.9-2.5,4.2-4.8,8.2-8.7,13.5-11.7,15.9-3-.3-5.8-.9-8.4-1.7-1.2-10.1,2.5-15.4,7.7-23.6,7.4-11.9,13.6-23.8,19.1-36.7l.2.2Z"/>
  <path class="st0" d="M652.7,1960.4h10.1c2.7,7.5.2,12.2-2.8,19.3-4.4,8.4-8.6,14.8-17.8,17.8-3.1,0-5.8-1.2-8-3.5.4-3.5,1-6.8,1.7-10.1h3.4c.5-1,.8-2,1.3-3,1.3-2.5,2.8-4.4,4.4-5.9,4-4.4,5.5-9.2,7.7-14.6h.2Z"/>
  <path class="st0" d="M627.5,1963.7c.4,3,.4,6.4,0,10.1-3.5,3.5-6.7,6-10.7,8.9-1,.7-2,1.5-3.2,2.2-2.7,1.8-5.2,3.7-7.9,5.5l-1.7,1.7h-11.7c-.4-3-.4-6.4,0-10.1,3.2-3.5,5.9-6,9.7-8.7.8-.7,1.8-1.5,2.7-2.2,8.6-6.8,16.2-9.3,22.8-7.4h0Z"/>
  <path class="st0" d="M461.5,1737.4c2.7,0,5.5.6,8.4,1.7,5.9,10.1,9.7,21.8,8.4,33.5-2.7.5-5.5,1.2-8.4,1.7-7.2-7.9-10.4-18.8-10.4-29.3.2-3.9.9-6.4,2-7.5Z"/>
  <path class="st0" d="M387.8,1251.2h10.1c2.7,5.5,3,11.6,3.7,17.4.2,1.3.3,2.7.7,4,.8,6.5.2,11-1.7,13.4-.8.7-1.8,1.3-2.7,2-2.5-.3-4.7-.9-6.7-1.7-3.5-10.4-4.9-21-5-31.9l1.7-3.4h0Z"/>
  <path class="st0" d="M857.2,798.6h10.1c1.7,6.2,1.8,9.4-.3,15.6-2,3-4.2,5-6.5,6-2.3,1-4.5.5-6.5-1.5-.3-7.5,0-13.2,3.4-20.1h0Z"/>
</svg>