<?xml version="1.0" encoding="UTF-8"?>
<svg id="uuid-aab26f70-1cdb-45d6-b9de-b0da204c6fe6" data-name="Layer 2" xmlns="http://www.w3.org/2000/svg" viewBox="0 0 1407.89 1445.79">
  <g id="uuid-d96e6515-3bed-4fed-a180-ec543233c4bc" data-name="Layer 1">
    <path d="M66.23,0C25.53,215.91-48.67,453.85,46.12,603.21c9.57-67.02-48.83-248.94,48.83-246.55C312.3,905.3,166.28,129.74,66.23,0ZM75.8,402.14c-29.68,75.16,27.29,453.85,114.9,296.82-20.11-101.49-59.84-214-114.9-296.82ZM213.2,762.15c-16.76,10.05-3.83,37.34-22.02,38.78-7.98,1.91-14.52,7.82-19.63,17.71,144.1,84.26,292.03,160.86,439.48,238.89,271.45,129.26,511.29,291.07,795.67,388.26,27.77-85.69-438.05-227.4-529.49-310.7-227.88-104.37-431.82-293.95-663.53-372.94h-.48Z" style="fill: #fff;"/>
  </g>
</svg>