<?xml version="1.0" encoding="UTF-8"?>
<svg xmlns="http://www.w3.org/2000/svg" version="1.1" viewBox="0 0 1137 641.9">
  <!-- Generator: Adobe Illustrator 30.0.0, SVG Export Plug-In . SVG Version: 2.1.1 Build 123)  -->
  <defs>
    <style>
      .st0 {
        fill: #fff;
        stroke-miterlimit: 10;
      }

      .st0, .st1 {
        stroke: #fff;
        stroke-width: .5px;
      }

      .st1 {
        fill: none;
        stroke-linecap: round;
        stroke-linejoin: round;
      }
    </style>
  </defs>
  <g id="uuid-937be392-e5c3-4c19-8337-2dc330c27f79">
    <g id="uuid-744f34e5-1b84-425b-94a1-c8638c8e7f4f">
      <path class="st0" d="M523,422.3c-25.3-32.2-50.5-64.3-75.8-96.5-1.1-1.3-3.5-1.5-4.9-.6-16.6,10.6-38.1,23.4-58.6,16.6-16.1-5.4-24-22.3-26-38.1-4.7-37,17.5-80.3,56.5-87,18.1-3.2,36.7,3.4,47,18.9,4.7,7.1,7.5,15.5,7.2,24.1-.3,9.8-6.9,18.3-5.3,28.2.8,5.1,3.4,9.6,5.9,14,3.2,5.4,6.3,10.8,9.4,16.2,6.2,10.6,12.4,21.2,18.6,31.8,6.2,10.6,12.4,21.2,18.6,31.8,3.1,5.4,6.3,10.8,9.4,16.2,2.8,4.7,5.3,9.8,8.7,14.1,6.9,8.7,18.4,8.4,28.5,9.5,12,1.3,23.9,2.9,35.9,4.6,23.7,3.5,47.3,7.8,70.8,12.9,6,1.3,11.9,2.7,17.8,4.1l-3-3.9c.3,49.1.6,98.3.9,147.4,0,13.9.2,27.7.2,41.5l3-3.9c-50.8,6.9-102.1,10-153.3,9.5l3.9,3c-5.8-32-11.1-64.2-15.9-96.4-2.4-16.1-4.7-32.2-6.8-48.3-1-7.4-1.8-14.9-2.9-22.3-.8-5.6-2-11.2-2.4-16.9-.3-5.3.2-10.6,3.3-15.1,2.5-3.6,6.3-6.3,9.2-9.6,3.4-3.9-2.2-9.6-5.7-5.7-2.6,3-5.8,5.4-8.3,8.4-3.6,4.2-5.7,9.3-6.4,14.8s0,10.9.9,16.2c1,6.8,2.1,13.5,3,20.3,4.3,33.6,9.2,67,14.6,100.4,3,18.8,6.3,37.6,9.7,56.4.3,1.7,2.2,3,3.9,3,52,.5,103.9-2.8,155.4-9.7,1.7-.2,3-2.3,3-3.9-.3-49.1-.6-98.3-.9-147.4,0-13.9-.2-27.7-.2-41.6,0-1.7-1.2-3.5-3-3.9-24.6-5.8-49.4-10.8-74.4-14.8-12.6-2.1-25.3-3.8-38-5.4-6.3-.8-12.5-1.5-18.8-2.2-5.2-.5-11.6-.4-15.8-4s-6.5-9.4-9.1-13.9c-3.3-5.6-6.5-11.2-9.8-16.8-6.5-11.2-13.1-22.4-19.6-33.5s-13.1-22.4-19.6-33.5c-3.2-5.4-6.5-10.8-9.5-16.3-2.8-5.2-4.3-10.1-2.5-15.9,1.5-4.9,3.5-9.4,4.2-14.5.7-4.7.5-9.3-.3-14-1.5-8.9-5.8-17.3-11.6-24.2-12.8-15.3-32.9-20.7-52.2-17.4-41,7.2-65.4,51.4-62.8,90.7,1.2,17.2,7.6,35.2,22.5,45.2,18.7,12.5,41.8,5.7,60.1-4,5-2.7,9.8-5.6,14.6-8.6l-4.9-.6c25.3,32.2,50.5,64.3,75.8,96.5,3.2,4.1,8.9-1.7,5.7-5.7h0s0,0,0,0Z"/>
      <path class="st0" d="M560.3,420c5.2,0,5.2-8.1,0-8.1s-5.2,8.1,0,8.1h0Z"/>
      <path class="st0" d="M566.1,413.8c-.9-51.8,14.9-103.9,45.3-146,6.4-8.8,14.9-18.2,26.5-18.9,10.7-.7,20.8,5.1,27.8,12.8,17.7,19.2,13.4,49.1,11.2,72.9-3.1,33.4-6.2,66.8-9.3,100.2-.5,5.2,7.6,5.1,8.1,0,2.9-31.9,5.9-63.7,8.8-95.6,2.4-26.1,7.1-57.1-10-79.4-6.9-9-17-16.4-28.3-18.4-12.3-2.2-23.5,2.3-32.3,10.9-9.3,9.1-16.4,21-22.8,32.2-6.9,12.1-12.7,24.7-17.6,37.8-10.8,29.2-16.1,60.4-15.5,91.5,0,5.2,8.1,5.2,8.1,0h0s0,0,0,0Z"/>
      <path class="st0" d="M384,268.8c5.2,0,5.2-8.1,0-8.1s-5.2,8.1,0,8.1h0Z"/>
      <path class="st0" d="M413.3,254.2c5.2,0,5.2-8.1,0-8.1s-5.2,8.1,0,8.1h0Z"/>
      <path class="st0" d="M449.8,262.6c5.2,0,5.2-8.1,0-8.1s-5.2,8.1,0,8.1h0Z"/>
      <path class="st0" d="M379,316.1c5.2,0,5.2-8.1,0-8.1s-5.2,8.1,0,8.1h0Z"/>
      <path class="st0" d="M417.8,322.2c5.2,0,5.2-8.1,0-8.1s-5.2,8.1,0,8.1h0Z"/>
      <path class="st0" d="M448.7,294.7c5.2,0,5.2-8.1,0-8.1s-5.2,8.1,0,8.1h0Z"/>
      <path class="st0" d="M395.3,290.7c5.2,0,5.2-8.1,0-8.1s-5.2,8.1,0,8.1h0Z"/>
      <path class="st0" d="M424.5,278.4c5.2,0,5.2-8.1,0-8.1s-5.2,8.1,0,8.1h0Z"/>
      <path class="st0" d="M417.2,298.6c5.2,0,5.2-8.1,0-8.1s-5.2,8.1,0,8.1h0Z"/>
    </g>
  </g>
  <g id="Layer_2">
    <polyline class="st1" points="823.4 133 688.5 133.2 689.9 149.1 691.7 169 690.7 180.3 684.7 207.2 676 240 665.8 250 653.6 248.3 653.6 235 653.6 214.7 653.6 177.5 653.6 163.7 649.2 145.7 638.5 137.2 622.8 157.8 616.8 174.8 616.8 184.4 622.8 207.6 629.2 226.6 639.9 242 646.7 247.2 648.7 258.6 636.2 254.8 621.8 248.3 611.2 228.7 602.4 208 596.2 189.5 594.5 178 594.5 160.8 602.4 151.1 612.8 133.2 615.8 124.5 602.4 120.8 578 118.2 562.5 118.2 545.2 115.4 535.5 120.4 529.1 133.3 527.2 147.3 530.7 160.8 533.2 178 523.6 178 510.6 164.4 507.8 146.5 511.1 125.5 519.2 111.9 530.7 99.7 546.6 96.7 572.4 94.8 587.9 94.8 612.8 96.7 601.3 86.6 586.4 74.8 572.4 68 558.8 64 542.4 79.4 538.1 91.5 535.1 96.2 523.6 94.8 522.4 83.1 533.6 61.7 552.6 52.6 563.5 46.2 582.6 52.1 602.4 59 612.8 68 618.9 69.8 612.2 51.4 602.4 37.8 596.2 35.6 582.6 42.4 577 43.5 564.8 42.4 569 29.3 585.1 21.7 599.9 15.4 631.8 31.2 644.1 41.9 823.4 41.9"/>
    <polyline class="st1" points="660.9 246.7 666.4 233.7 672.7 229.4 679 228.6"/>
    <polyline class="st1" points="636.3 252.8 630.8 245.3 622.2 238.9 618 238.9"/>
    <line class="st1" x1="684.1" y1="175.5" x2="676.3" y2="175.5"/>
    <line class="st1" x1="686.5" y1="169" x2="679" y2="169"/>
    <line class="st1" x1="601.1" y1="164" x2="604.6" y2="169"/>
    <line class="st1" x1="604.6" y1="158.1" x2="608.6" y2="162.4"/>
    <polyline class="st1" points="521.4 171.3 518.7 159.2 508.6 151.8"/>
    <line class="st1" x1="536.1" y1="104.9" x2="539.6" y2="109.9"/>
    <line class="st1" x1="543.7" y1="102.4" x2="543.7" y2="107.4"/>
    <line class="st1" x1="564.9" y1="57.2" x2="564.9" y2="51.5"/>
    <line class="st1" x1="571.3" y1="59.4" x2="571.3" y2="54.3"/>
    <line class="st1" x1="597.6" y1="26.9" x2="597.6" y2="22.6"/>
    <line class="st1" x1="604.6" y1="29.9" x2="604.6" y2="24.8"/>
  </g>
</svg>